<svg width="181" height="59" viewBox="0 0 181 59" fill="none" xmlns="http://www.w3.org/2000/svg">
<path d="M113.502 26.6L113.519 26.6184C113.603 26.7127 113.645 26.8311 113.645 26.9487L113.647 33.5335C113.647 33.6782 113.585 33.8082 113.486 33.8992L113.466 33.9206C113.369 34.024 113.237 34.0766 113.105 34.0766L113.016 34.0781C112.865 34.0781 112.731 34.0112 112.639 33.9059L112.565 33.8229L112.403 33.9157C112.213 34.0164 112.009 34.0938 111.798 34.1457C111.591 34.1968 111.374 34.222 111.155 34.2205L111.136 34.2201C110.779 34.2036 110.43 34.113 110.111 33.9601C109.792 33.8075 109.502 33.5914 109.257 33.3208C109.013 33.0514 108.822 32.7387 108.695 32.4042L108.686 32.3779C108.564 32.048 108.499 31.6951 108.499 31.3385C108.499 30.9728 108.567 30.6117 108.695 30.2746C108.822 29.9382 109.013 29.6256 109.257 29.3561C109.501 29.0863 109.792 28.8698 110.111 28.7173C110.43 28.5643 110.779 28.4741 111.136 28.4572H111.179C111.388 28.4568 111.596 28.4824 111.796 28.5308C112.007 28.5819 112.213 28.6597 112.405 28.7608L112.471 28.7969V26.9487C112.471 26.8044 112.533 26.674 112.631 26.5831L112.656 26.5568C112.754 26.4546 112.884 26.4031 113.016 26.4031L113.105 26.4016C113.267 26.4016 113.411 26.4793 113.502 26.6ZM180.513 51.4232C179.933 52.0237 178.96 52.6724 177.812 53.135C176.842 53.5269 175.737 53.7919 174.631 53.7919C172.036 53.7919 169.923 52.796 168.431 51.1917C166.852 49.4931 165.979 47.1157 165.979 44.5242C165.979 42.0086 166.793 39.741 168.235 38.1213C169.627 36.5576 171.597 35.5993 173.979 35.5993C176.203 35.5993 177.831 36.4873 178.959 37.7666C180.392 39.3919 181 41.6482 181 43.4927L180.999 43.525C181 43.6941 180.986 43.8621 180.955 44.024C180.921 44.2033 180.867 44.3792 180.796 44.5468C180.749 44.6561 180.668 44.7399 180.571 44.791L180.246 44.9632C180.172 45.0019 180.093 45.0203 180.015 45.0203L167.703 45.0214C167.803 46.991 168.496 48.749 169.665 50.0196C170.857 51.3142 172.554 52.109 174.631 52.109L174.662 52.1102C175.578 52.0876 176.479 51.8918 177.323 51.5412C178.18 51.1853 178.977 50.6686 179.673 50.0094C179.871 49.8208 180.185 49.8286 180.374 50.0267L180.538 50.2007C180.628 50.2966 180.672 50.4187 180.672 50.5404L180.674 51.0572C180.674 51.2019 180.612 51.3322 180.513 51.4232ZM179.325 43.3386C179.177 41.5625 178.636 40.0586 177.75 38.995C176.85 37.9142 175.575 37.2825 173.979 37.2825C172.165 37.2825 170.717 37.9391 169.673 39.024C168.632 40.1052 167.978 41.6174 167.746 43.3386H179.325ZM154.948 36.2953L155.088 36.4434C155.18 36.5392 155.225 36.6624 155.225 36.7853L155.226 38.2081C155.387 38.048 155.553 37.8939 155.724 37.747L155.739 37.7342C156.25 37.2968 156.805 36.9176 157.394 36.6072C157.99 36.293 158.618 36.0491 159.266 35.8808C159.911 35.7124 160.575 35.6189 161.245 35.6038C161.82 35.5933 162.391 35.6508 162.948 35.7748C163.51 35.8996 164.055 36.0897 164.571 36.3411C164.722 36.4148 164.819 36.5561 164.844 36.7109L165 37.3618C165.04 37.532 164.988 37.7023 164.875 37.8199L164.711 37.9921C164.535 38.1751 164.252 38.1935 164.054 38.0439C163.55 37.6651 163.049 37.4749 162.585 37.381C162.112 37.2851 161.644 37.2851 161.255 37.2851C160.094 37.2851 158.85 37.6628 157.747 38.331C156.724 38.9515 155.824 39.8207 155.226 40.8684V52.6089C155.226 52.7532 155.165 52.8828 155.067 52.9738L154.925 53.1222C154.828 53.2244 154.697 53.2759 154.566 53.2759L154.253 53.2774C154.1 53.2774 153.963 53.2079 153.872 53.0989L153.731 52.9508C153.639 52.855 153.594 52.7317 153.594 52.6089L153.593 36.7853C153.593 36.641 153.654 36.5114 153.753 36.4204L153.894 36.272C153.991 36.1698 154.122 36.1183 154.253 36.1183L154.566 36.1168C154.719 36.1168 154.856 36.1863 154.948 36.2953ZM138.35 36.8635C138.86 36.5941 139.542 36.2788 140.33 36.0319C141.127 35.7816 142.034 35.5993 142.986 35.5993C145.255 35.5993 146.927 36.2141 148.045 37.4652C149.15 38.7012 149.68 40.5313 149.68 42.9755V52.6062C149.68 52.7505 149.619 52.8802 149.521 52.9711L149.379 53.1196C149.282 53.2218 149.151 53.2733 149.02 53.2733L148.695 53.2748C148.542 53.2748 148.405 53.2052 148.314 53.0963L148.173 52.9482C148.081 52.8524 148.036 52.7291 148.036 52.6062L148.035 51.8768C147.343 52.3488 146.54 52.7915 145.664 53.1316C144.632 53.5326 143.5 53.7919 142.333 53.7919C140.705 53.7919 139.252 53.3398 138.218 52.4875C137.22 51.6648 136.616 50.4848 136.616 48.994C136.616 46.6197 137.907 45.0597 140.109 44.0518C142.094 43.1432 144.832 42.699 148.027 42.5069C147.962 40.5884 147.492 39.2976 146.692 38.4892C145.838 37.6275 144.568 37.2825 142.986 37.2825C142.148 37.2825 141.384 37.4441 140.677 37.6854C139.954 37.9327 139.281 38.2664 138.649 38.5989C138.444 38.7068 138.197 38.6568 138.049 38.4919L137.896 38.3306C137.75 38.1784 137.722 37.9571 137.806 37.7771L138.132 37.0909C138.18 36.9894 138.258 36.912 138.35 36.8635ZM148.035 44.1913C145.282 44.3694 142.855 44.7088 141.106 45.4329C139.378 46.1484 138.328 47.2552 138.328 48.994C138.328 49.9726 138.72 50.7159 139.353 51.2233C140.089 51.8137 141.156 52.109 142.333 52.109C143.346 52.109 144.399 51.8542 145.374 51.4484C146.392 51.0248 147.321 50.4393 148.035 49.808V44.1913ZM113.58 36.2957L113.721 36.4437C113.768 36.493 113.802 36.5493 113.825 36.6095L119.139 50.5532L123.597 37.3167C123.621 37.2457 123.659 37.1833 123.708 37.1322L123.871 36.9605C123.968 36.8582 124.099 36.8068 124.23 36.8068L124.555 36.8053C124.709 36.8053 124.846 36.8748 124.937 36.9841L125.078 37.1322C125.133 37.1897 125.171 37.257 125.192 37.328L129.643 50.5524L134.956 36.6091C134.983 36.537 135.026 36.4746 135.079 36.4249L135.224 36.272C135.321 36.1698 135.452 36.1183 135.583 36.1183L135.974 36.1168C136.127 36.1168 136.265 36.1863 136.356 36.2957L136.496 36.4437C136.632 36.5862 136.666 36.7891 136.601 36.962L130.567 52.7829C130.539 52.855 130.497 52.9174 130.444 52.967L130.299 53.1199C130.201 53.2222 130.071 53.2736 129.939 53.2736L129.286 53.2751C129.133 53.2751 128.996 53.2056 128.904 53.0963L128.764 52.9482C128.709 52.8907 128.671 52.8231 128.649 52.7517L124.393 40.0638L120.128 52.7637C120.104 52.8339 120.066 52.8952 120.019 52.9459L119.856 53.1177C119.759 53.221 119.627 53.2736 119.495 53.2736L118.842 53.2751C118.689 53.2751 118.552 53.2056 118.46 53.0963L118.32 52.9482C118.273 52.899 118.238 52.8426 118.215 52.7824L112.459 37.6933C112.37 37.7628 112.262 37.7981 112.154 37.7981L105.464 37.7996V47.6193C105.464 49.2236 105.796 50.3127 106.323 51.0132C106.919 51.8061 107.796 52.109 108.718 52.109C109.144 52.109 109.675 52.0696 110.227 51.9313C110.769 51.7956 111.335 51.5634 111.845 51.1785C112.054 51.0211 112.347 51.0534 112.517 51.2469L112.667 51.404C112.758 51.4999 112.803 51.6231 112.803 51.746L112.805 52.2631C112.805 52.4525 112.698 52.6175 112.542 52.7013C111.977 53.0643 111.366 53.3409 110.732 53.5239C110.086 53.7107 109.415 53.8016 108.74 53.7904C107.237 53.7922 105.969 53.2684 105.09 52.1688C104.297 51.1778 103.84 49.7298 103.84 47.7911V37.7996H101.714C101.559 37.7996 101.419 37.7278 101.328 37.6158L101.229 37.5091L101.102 37.6448C101.005 37.7481 100.873 37.8008 100.741 37.8008L94.8708 37.8023V52.6089C94.8708 52.7532 94.8091 52.8828 94.7111 52.9738L94.5698 53.1222C94.4724 53.2244 94.3416 53.2759 94.2105 53.2759L93.8828 53.2774C93.7295 53.2774 93.5923 53.2079 93.501 53.0985L93.3608 52.9508C93.2695 52.855 93.2244 52.7317 93.2244 52.6089L93.2229 37.7996H91.2747C91.1135 37.7996 90.9703 37.7226 90.8794 37.6038L90.7509 37.4663C90.6618 37.3708 90.6175 37.2494 90.6178 37.1284L90.6148 36.7504C90.6148 36.5888 90.6922 36.4452 90.8117 36.3543L90.956 36.2333C91.0489 36.1555 91.1623 36.1176 91.2747 36.1176L93.2255 36.1168V34.2051C93.2255 32.3388 93.7313 30.6992 94.6475 29.5335C95.5543 28.3794 96.852 27.6894 98.4529 27.6894C99.7096 27.6894 100.067 27.8769 101.118 28.4305L101.153 28.4504C101.307 28.5425 101.394 28.7064 101.394 28.8755L101.396 29.3926C101.396 29.5369 101.334 29.6669 101.236 29.7578L101.095 29.9055C100.938 30.0701 100.694 30.1036 100.502 30.0014C100.039 29.7571 99.7291 29.5932 99.4394 29.4978C99.1684 29.4084 98.8862 29.3726 98.4529 29.3726C97.3409 29.3726 96.4691 29.8379 95.8715 30.6436C95.218 31.5256 94.8708 32.8206 94.8708 34.3791V36.1191H100.741C100.894 36.1191 101.031 36.1886 101.123 36.2979L101.227 36.4077L101.353 36.2743C101.45 36.1709 101.582 36.1183 101.714 36.1183L103.828 36.1168V32.6587C103.828 32.514 103.89 32.3839 103.988 32.293L104.126 32.1476C104.223 32.0442 104.355 31.9916 104.487 31.9916L104.813 31.9901C104.979 31.9901 105.125 32.0709 105.215 32.1953L105.366 32.3866C105.438 32.4775 105.472 32.5861 105.472 32.6936L105.473 36.1168H112.154C112.279 36.1168 112.394 36.1634 112.481 36.2397C112.574 36.1593 112.691 36.1183 112.807 36.1183L113.198 36.1168C113.352 36.1168 113.489 36.1863 113.58 36.2957ZM89.6633 44.6956C89.6633 47.2334 88.7554 49.5028 87.2653 51.1398C85.767 52.7855 83.6817 53.7919 81.337 53.7919C78.9924 53.7919 76.9063 52.7858 75.4069 51.1395C73.9161 49.5028 73.0081 47.2326 73.0081 44.6956C73.0081 42.1582 73.9165 39.8876 75.4069 38.251C76.9056 36.6057 78.9913 35.5993 81.337 35.5993C83.6828 35.5993 85.7677 36.6053 87.2657 38.2506C88.7557 39.8876 89.6633 42.1582 89.6633 44.6956ZM74.7218 44.6956C74.7218 46.7907 75.461 48.6404 76.6549 49.9685C77.853 51.3007 79.5114 52.109 81.337 52.109C83.1619 52.109 84.8196 51.2999 86.0176 49.9677C87.2119 48.6389 87.9519 46.7888 87.9519 44.6956C87.9519 42.6028 87.2119 40.7531 86.0173 39.4246C84.8192 38.092 83.1608 37.2825 81.337 37.2825C79.5118 37.2825 77.85 38.0928 76.6489 39.4265C75.473 40.732 74.7349 42.5415 74.7105 44.5896C74.718 44.6238 74.7218 44.6591 74.7218 44.6956ZM69.789 38.6414C69.1013 38.1788 68.3557 37.8282 67.58 37.5993C66.8036 37.3705 65.9953 37.2618 65.1832 37.2806H65.1715C64.061 37.2825 63.0843 37.6286 62.3928 38.2044C61.7311 38.7553 61.3293 39.5231 61.3293 40.3975C61.3293 42.2495 63.4583 42.8831 65.6774 43.5434C68.4654 44.3731 71.3779 45.2409 71.3779 48.4795C71.3779 49.9925 70.6736 51.3157 69.5489 52.2642C68.4181 53.218 66.8589 53.7919 65.1715 53.7919C64.1542 53.7919 63.2174 53.7009 62.3177 53.4747C61.4124 53.2473 60.5492 52.8824 59.686 52.3368C59.5368 52.2428 59.4548 52.082 59.4545 51.9174L59.453 51.3334C59.453 51.1894 59.5142 51.0602 59.6119 50.9692L59.7536 50.8197C59.9284 50.6359 60.2117 50.616 60.4098 50.7644C61.247 51.3567 62.0058 51.693 62.7604 51.8794C63.5248 52.0685 64.3068 52.109 65.1715 52.109C66.4568 52.109 67.606 51.7103 68.4219 51.0357C69.1915 50.3995 69.6642 49.5103 69.6642 48.4795C69.6642 46.6035 67.4948 45.938 65.2508 45.2495C62.4827 44.4006 59.6157 43.5205 59.6157 40.3975C59.6157 39.0462 60.2489 37.8429 61.2669 36.9774C62.2722 36.1224 63.6578 35.5993 65.1715 35.5993C66.1753 35.5993 67.146 35.7323 68.0389 35.9755C68.96 36.2262 69.7962 36.5963 70.4997 37.0601C70.6443 37.1548 70.7225 37.3126 70.7225 37.4738L70.7247 38.048C70.7247 38.1904 70.6646 38.319 70.5684 38.4095L70.4339 38.5599C70.2674 38.7459 69.9912 38.7763 69.789 38.6414ZM43.7587 58.6619H10.7344H10.6378L10.6074 58.6607C7.69192 58.6243 5.05266 57.3379 3.13532 55.2782C1.19919 53.1981 0 50.3289 0 47.1669C0.00150321 46.2093 0.111997 45.2619 0.327707 44.3476C0.543042 43.4352 0.865095 42.5471 1.28712 41.7061L17.5661 6.70843C17.8273 6.09474 18.1381 5.50961 18.4913 4.96282L18.5158 4.92825C18.8743 4.37733 19.276 3.86212 19.7153 3.39161C20.2072 2.85497 20.7492 2.37317 21.3294 1.9534L21.3579 1.93424C21.9314 1.52274 22.5447 1.1691 23.1877 0.882365C23.8435 0.589615 24.5233 0.367907 25.2129 0.220968C25.9018 0.0740299 26.609 -0.000374385 27.3223 1.41646e-06C28.0352 -0.000374385 28.7425 0.0740299 29.4309 0.220968C30.1205 0.367907 30.8 0.589982 31.4554 0.882732C32.1078 1.1736 32.7301 1.53363 33.3111 1.9534C33.8928 2.37279 34.4347 2.85494 34.927 3.39121L34.9375 3.40288C35.3825 3.88127 35.7872 4.40215 36.1457 4.9557C36.5031 5.50776 36.815 6.09587 37.0774 6.71144L53.3499 41.7087C53.7915 42.5858 54.1339 43.5099 54.3699 44.4615C54.5886 45.3416 54.7175 46.2503 54.7528 47.1695L54.7547 47.2161L54.7551 47.2225C54.7611 47.3713 54.7645 47.5212 54.7645 47.6712C54.7645 49.1766 54.5018 50.6201 54.0008 51.9358C53.864 52.2947 53.7092 52.6438 53.5375 52.9824L53.5341 52.9899L53.5296 52.9993C52.6513 54.7731 51.309 56.1906 49.6513 57.1639C47.9993 58.1339 46.038 58.6619 43.9143 58.6619H43.7587ZM11.1222 57.0609C14.6705 56.8881 18.657 54.8543 22.5124 52.1865C26.5842 49.3687 30.52 45.8298 33.6519 43.0112L33.8767 42.8117C35.9079 40.9913 37.5088 39.5561 38.6298 38.8045L38.661 38.7853C39.5313 38.2322 40.4626 37.8057 41.4269 37.5159C42.3983 37.2239 43.4122 37.0672 44.4389 37.0556H44.4506C46.6284 37.0916 48.6494 37.8105 50.3138 39.0059C45.3927 28.9585 39.4675 17.0092 35.6456 7.32212C35.4235 6.80313 35.157 6.30442 34.8522 5.83392C34.5414 5.35327 34.1878 4.90043 33.7977 4.48254C33.3723 4.0203 32.9097 3.60881 32.4167 3.25292C31.9206 2.89479 31.39 2.58815 30.8345 2.34087C30.2817 2.09435 29.7049 1.9068 29.1152 1.78128C28.5245 1.65539 27.924 1.5919 27.3246 1.59228C26.7252 1.5919 26.1242 1.65539 25.5339 1.78091C24.9435 1.90681 24.3662 2.09433 23.8138 2.3401C23.2576 2.58775 22.7266 2.89366 22.2306 3.25142C21.7368 3.6073 21.2738 4.01883 20.851 4.47806L20.8363 4.49344C20.45 4.90945 20.1001 5.36044 19.7916 5.83733L19.7747 5.86174C19.4699 6.33637 19.2035 6.84145 18.9799 7.36982C13.8754 18.7134 8.30447 31.429 2.68511 42.4239C2.32246 43.1458 2.04398 43.9135 1.8557 44.7069C1.66668 45.5039 1.56972 46.3262 1.56972 47.1545C1.56972 49.8937 2.60317 52.3751 4.27098 54.1692C5.93015 55.955 8.21991 57.0609 10.7415 57.0609H11.1222ZM17.1997 57.0609H43.9215C44.41 57.0609 44.888 57.0294 45.3532 56.967L45.3687 56.9652L45.431 56.9565L45.4352 56.9558L45.4931 56.9475L45.5171 56.9441L45.5551 56.9381L45.5983 56.9313C46.2206 56.8317 46.8155 56.6799 47.3781 56.4773L47.3882 56.474L47.4337 56.4571L47.6539 56.3729C48.8106 55.9137 49.8336 55.2293 50.6889 54.3323L50.6923 54.3289C51.2594 53.7362 51.7378 53.0617 52.12 52.3236L52.1418 52.28C52.4973 51.5247 52.7671 50.7283 52.9471 49.9098C53.0839 49.2868 53.1688 48.6532 53.2007 48.0169C53.2041 47.9012 53.2064 47.785 53.2064 47.6685C53.2064 45.2172 52.2199 42.9774 50.6284 41.3419C49.0395 39.7091 46.8475 38.6771 44.4333 38.6377H44.3889C44.0488 38.6403 41.6167 38.7053 39.4859 40.1303L39.4656 40.1431C38.4344 40.8466 36.8744 42.2416 34.9101 43.9981L34.6835 44.201C32.001 46.6141 28.7387 49.5468 25.273 52.1361C22.6477 54.0978 19.9036 55.8633 17.1997 57.0609ZM131.266 23.6883C130.691 24.2952 129.705 24.9547 128.542 25.4241C127.571 25.8157 126.466 26.081 125.361 26.081C122.766 26.081 120.653 25.0851 119.16 23.4805C117.58 21.7818 116.706 19.4041 116.706 16.8133C116.706 14.2996 117.52 12.0324 118.963 10.4127C120.355 8.84938 122.325 7.89107 124.708 7.89107C126.932 7.89107 128.559 8.77872 129.688 10.0579C131.121 11.6822 131.729 13.9366 131.729 15.7814L131.728 15.8122C131.731 15.981 131.716 16.1489 131.685 16.3117C131.652 16.4913 131.598 16.6679 131.526 16.8359C131.48 16.9453 131.399 17.0291 131.301 17.0802L130.975 17.2523C130.901 17.291 130.822 17.3094 130.744 17.3094L118.446 17.3106C118.546 19.2805 119.24 21.0389 120.409 22.3099C121.6 23.6052 123.298 24.4004 125.375 24.4004L125.406 24.4015C126.323 24.3794 127.224 24.1839 128.068 23.8333C128.924 23.4774 129.721 22.9607 130.416 22.3008C130.614 22.1122 130.929 22.1201 131.117 22.3181L131.282 22.4966C131.374 22.5951 131.418 22.721 131.415 22.8461L131.402 23.358C131.399 23.4861 131.348 23.6018 131.266 23.6883ZM130.052 15.6273C129.905 13.8513 129.364 12.3477 128.478 11.2838C127.578 10.2034 126.304 9.57164 124.708 9.57164C122.893 9.57164 121.446 10.2282 120.402 11.3131C119.362 12.3943 118.707 13.9065 118.476 15.6273H130.052ZM125.137 1.60542L125.427 1.75647C125.491 1.78992 125.545 1.83578 125.587 1.88914L129.503 6.87526C129.663 7.07857 129.638 7.36834 129.454 7.54272L129.308 7.69605C129.211 7.79826 129.08 7.84974 128.949 7.84974L128.622 7.85125C128.527 7.85125 128.438 7.82456 128.363 7.77796L128.065 7.62125C127.993 7.5833 127.934 7.52994 127.89 7.46756L124.708 3.34915L121.51 7.48521C121.465 7.54346 121.41 7.58894 121.349 7.62089L121.024 7.79301C120.95 7.83171 120.871 7.85011 120.793 7.85011L120.467 7.85125C120.312 7.85125 120.173 7.7802 120.082 7.66896L119.943 7.52205C119.773 7.34129 119.766 7.06545 119.915 6.87567L123.829 1.8884C123.879 1.82527 123.941 1.77715 124.009 1.7452L124.313 1.58512C124.387 1.54641 124.466 1.52802 124.544 1.52802L124.87 1.52688C124.968 1.52688 125.06 1.55581 125.137 1.60542ZM113.515 3.08117L114.307 3.91733C114.399 4.01316 114.444 4.13645 114.444 4.25933L114.445 4.60207C114.445 4.746 114.384 4.87525 114.286 4.9662L113.492 5.80423C113.395 5.90645 113.264 5.95796 113.133 5.95796L112.807 5.95947C112.653 5.95947 112.516 5.88955 112.424 5.78019L111.632 4.94403C111.541 4.8482 111.495 4.72495 111.495 4.60207L111.494 4.25933C111.494 4.1154 111.555 3.98573 111.653 3.89516L112.447 3.05713C112.545 2.95492 112.675 2.90344 112.807 2.90344L113.133 2.90193C113.287 2.90193 113.424 2.97181 113.515 3.08117ZM113.517 8.5878L113.656 8.73475C113.746 8.83058 113.791 8.95271 113.791 9.07447L113.792 24.8954C113.792 25.04 113.73 25.1701 113.632 25.261L113.494 25.4064C113.397 25.5098 113.265 25.5624 113.133 25.5624L112.807 25.5639C112.652 25.5639 112.514 25.4929 112.422 25.382L112.284 25.2351C112.193 25.1393 112.149 25.0171 112.149 24.8954L112.147 9.07447C112.147 8.92979 112.21 8.79975 112.308 8.7088L112.446 8.5634C112.543 8.46005 112.675 8.40743 112.807 8.40743L113.133 8.40592C113.288 8.40592 113.426 8.47694 113.517 8.5878ZM104.71 0.677179L104.848 0.824123C104.938 0.919952 104.983 1.04209 104.983 1.16385L104.984 20.4229C104.984 22.0359 105.237 23.0626 105.651 23.671C106.013 24.2009 106.523 24.4004 107.098 24.4004C107.451 24.4004 107.764 24.3643 108.082 24.2411C108.415 24.1114 108.776 23.8811 109.22 23.4932C109.421 23.317 109.725 23.3335 109.907 23.5267L110.069 23.6977C110.16 23.7935 110.204 23.9156 110.204 24.0374L110.205 24.5519C110.205 24.7258 110.116 24.8792 109.98 24.9679C109.592 25.2704 109.105 25.5692 108.577 25.7777L108.552 25.7871C108.093 25.9656 107.598 26.0806 107.098 26.0806C105.905 26.0806 104.915 25.6361 104.238 24.6022C103.663 23.7244 103.337 22.4207 103.337 20.5969V1.16385C103.337 1.01804 103.4 0.886882 103.5 0.795938L103.642 0.648626C103.739 0.547536 103.869 0.496801 103.999 0.496801L104.325 0.495296C104.48 0.495296 104.618 0.566317 104.71 0.677179ZM100.255 23.7127C99.6765 24.3128 98.7036 24.9615 97.5559 25.4245C96.5852 25.8161 95.4815 26.0814 94.3755 26.0814C91.7806 26.0814 89.6667 25.0851 88.1748 23.4812C86.5949 21.7826 85.7215 19.4053 85.7215 16.8138C85.7215 14.3 86.5355 12.0328 87.9778 10.4131C89.3698 8.84975 91.3397 7.89143 93.7223 7.89143C95.9467 7.89143 97.5746 8.77908 98.7032 10.0583C100.136 11.6822 100.745 13.937 100.745 15.7818L100.743 15.8126C100.746 15.9817 100.731 16.1501 100.7 16.3135C100.666 16.4954 100.612 16.6724 100.54 16.8382C100.491 16.9535 100.403 17.0407 100.297 17.0907L99.9884 17.2527C99.9148 17.2914 99.8355 17.3098 99.7573 17.3098L87.4453 17.3109C87.5453 19.2805 88.2394 21.0389 89.4089 22.3102C90.6013 23.6052 92.2992 24.4008 94.3755 24.4008L94.407 24.4019C95.3232 24.3801 96.224 24.1851 97.0681 23.8345C97.9238 23.4786 98.7208 22.9615 99.4153 22.3016C99.6134 22.1129 99.9279 22.1208 100.117 22.3188L100.282 22.497C100.371 22.5924 100.415 22.7138 100.415 22.8348L100.416 23.3467C100.416 23.4914 100.354 23.6217 100.255 23.7127ZM99.0673 15.6277C98.9197 13.8517 98.3793 12.3481 97.4931 11.2838C96.5935 10.2034 95.3187 9.57204 93.7223 9.57204C91.9091 9.57204 90.4619 10.2286 89.4175 11.3131C88.3773 12.3939 87.7226 13.9062 87.4896 15.6277H99.0673ZM77.8124 4.4803L77.9642 4.67271C78.036 4.76366 78.0705 4.87226 78.0702 4.97974L78.0709 8.40555H84.7497C84.9022 8.40555 85.0387 8.47432 85.13 8.58292L85.272 8.7306C85.3645 8.82681 85.4103 8.95084 85.4103 9.07447L85.4118 9.41721C85.4118 9.56264 85.3491 9.69381 85.2495 9.78475L85.107 9.9328C85.0097 10.0339 84.8797 10.0846 84.7497 10.0846L78.0709 10.0861V19.9009C78.0709 21.5045 78.4031 22.5936 78.9304 23.2937C79.5272 24.087 80.4031 24.3903 81.3254 24.3903C81.8098 24.3903 82.4317 24.338 83.0672 24.1464C83.537 24.0051 84.0165 23.7875 84.4524 23.4598C84.6546 23.3083 84.9361 23.3347 85.1067 23.5124L85.272 23.6838C85.3645 23.78 85.4103 23.904 85.4103 24.0276L85.4118 24.5421C85.4118 24.7315 85.3055 24.8961 85.1495 24.9803C84.5783 25.3471 83.9635 25.6259 83.3265 25.8086C82.6813 25.9938 82.0067 26.0832 81.3254 26.0693C79.8222 26.0708 78.5538 25.5481 77.6737 24.4496C76.88 23.4605 76.4231 22.013 76.4231 20.0723V10.0786H74.3099C74.1566 10.0786 74.0194 10.0091 73.9281 9.89973L73.7879 9.75206C73.6966 9.65623 73.6515 9.53294 73.6515 9.41005L73.65 9.06695C73.65 8.92302 73.7113 8.79376 73.809 8.70282L73.9507 8.55323C74.048 8.45102 74.1787 8.39954 74.3099 8.39954L76.4231 8.39803V4.94517C76.4231 4.80124 76.4843 4.67195 76.582 4.581L76.7237 4.43145C76.821 4.32923 76.9518 4.27776 77.0829 4.27776L77.411 4.27625C77.576 4.27625 77.7222 4.35666 77.8124 4.4803ZM61.0283 9.14963C61.5387 8.88169 62.2207 8.56675 63.0084 8.32023C63.8059 8.07032 64.7127 7.88806 65.6646 7.88806C67.9341 7.88806 69.606 8.50288 70.7255 9.75393C71.8311 10.9899 72.3618 12.8193 72.3618 15.2639V24.895C72.3618 25.0408 72.2986 25.1723 72.1983 25.2633L72.0566 25.4102C71.9593 25.5113 71.8292 25.562 71.6992 25.562L71.3738 25.5635C71.2201 25.5635 71.0829 25.4936 70.9916 25.3843L70.8522 25.237C70.7608 25.1411 70.7158 25.0178 70.7158 24.895L70.7142 24.1656C70.0228 24.6372 69.2197 25.0787 68.3441 25.4185C67.3117 25.8191 66.1794 26.078 65.0115 26.078C63.3839 26.078 61.931 25.6263 60.8972 24.7747C59.899 23.9529 59.2955 22.774 59.2955 21.2828C59.2955 18.9085 60.586 17.3481 62.7882 16.3399C64.7728 15.4312 67.5113 14.9862 70.7064 14.7953C70.6417 12.8753 70.1716 11.5848 69.3708 10.7772C68.5169 9.91625 67.2475 9.57127 65.6646 9.57127C64.8269 9.57127 64.0637 9.7325 63.3572 9.97339C62.6337 10.2203 61.9614 10.554 61.3278 10.8877C61.1226 10.9956 60.8758 10.9456 60.7273 10.7802L60.5747 10.6194C60.4297 10.4672 60.4007 10.2458 60.4853 10.0658L60.8107 9.37699C60.8585 9.27552 60.9363 9.19811 61.0283 9.14963ZM70.7142 16.48C67.9615 16.6581 65.5357 16.9971 63.7856 17.7217C62.0569 18.4372 61.0069 19.5439 61.0069 21.2828C61.0069 22.2602 61.3996 23.0036 62.0328 23.5113C62.7683 24.102 63.8356 24.3978 65.0115 24.3978C66.0239 24.3978 67.0757 24.143 68.0502 23.7375C69.0701 23.3128 70.001 22.7273 70.7142 22.0979V16.48ZM118.355 33.4884C118.102 33.7147 117.815 33.8935 117.506 34.0175C117.192 34.1446 116.854 34.2145 116.508 34.2201H116.5C115.67 34.222 114.994 33.9022 114.515 33.3877C114.014 32.8488 113.739 32.1002 113.739 31.2911C113.739 30.4937 113.996 29.783 114.451 29.2723C114.905 28.7627 115.547 28.4549 116.319 28.4549C117.052 28.4549 117.592 28.7515 117.969 29.1784C118.431 29.7011 118.627 30.4193 118.627 31.0029L118.626 31.0341C118.626 31.0946 118.62 31.1562 118.609 31.2164C118.598 31.2889 118.575 31.3655 118.542 31.4437C118.497 31.5497 118.42 31.632 118.326 31.6838L118.237 31.7342C118.161 31.7766 118.078 31.7969 117.996 31.7966L114.989 31.7984C115.059 32.104 115.195 32.3723 115.386 32.5797C115.65 32.8657 116.031 33.0412 116.5 33.0412L116.529 33.042C116.727 33.0341 116.925 32.989 117.111 32.9116C117.309 32.8293 117.494 32.7094 117.654 32.5576C117.852 32.3689 118.167 32.3768 118.355 32.5749L118.41 32.6365C118.494 32.7308 118.536 32.8492 118.536 32.9668L118.538 33.1033C118.538 33.2585 118.467 33.3975 118.355 33.4884ZM117.384 30.6027C117.323 30.3546 117.224 30.1445 117.091 29.9848C116.91 29.768 116.649 29.641 116.319 29.641C115.92 29.641 115.605 29.7812 115.382 30.0126C115.231 30.1697 115.115 30.3712 115.037 30.6027H117.384ZM112.471 30.3715C112.414 30.2832 112.349 30.2002 112.278 30.1246C112.181 30.0224 112.069 29.9322 111.948 29.859L111.918 29.8394C111.808 29.7763 111.69 29.727 111.569 29.6932C111.443 29.6586 111.312 29.6402 111.182 29.6391C110.982 29.6489 110.787 29.6996 110.608 29.7857C110.424 29.8747 110.257 29.9995 110.117 30.1539C109.976 30.3099 109.864 30.4956 109.787 30.6985C109.711 30.8984 109.671 31.116 109.671 31.3385C109.671 31.5606 109.711 31.7785 109.787 31.9785C109.864 32.181 109.976 32.367 110.117 32.523C110.261 32.6797 110.427 32.8049 110.606 32.8905C110.787 32.977 110.983 33.0285 111.182 33.0382C111.312 33.0371 111.443 33.0187 111.568 32.9837C111.7 32.9473 111.828 32.8916 111.947 32.8195C112.067 32.7451 112.179 32.6553 112.276 32.5523C112.348 32.4764 112.414 32.3922 112.471 32.302V30.3715Z" fill="black"/>
</svg>
