<?xml version="1.0" encoding="UTF-8" standalone="no"?>
<!-- Created with Inkscape (http://www.inkscape.org/) -->

<svg
   version="1.1"
   id="svg7462"
   width="490"
   height="450"
   viewBox="0 0 490 450"
   sodipodi:docname="if_branco-ducarmo.pdf"
   xmlns:inkscape="http://www.inkscape.org/namespaces/inkscape"
   xmlns:sodipodi="http://sodipodi.sourceforge.net/DTD/sodipodi-0.dtd"
   xmlns="http://www.w3.org/2000/svg"
   xmlns:svg="http://www.w3.org/2000/svg">
  <defs
     id="defs7466" />
  <sodipodi:namedview
     id="namedview7464"
     pagecolor="#505050"
     bordercolor="#eeeeee"
     borderopacity="1"
     inkscape:showpageshadow="0"
     inkscape:pageopacity="0"
     inkscape:pagecheckerboard="0"
     inkscape:deskcolor="#505050"
     showgrid="false" />
  <g
     id="g7470"
     inkscape:groupmode="layer"
     inkscape:label="Page 1"
     transform="scale(1.3333333)">
    <g
       id="g7472"
       inkscape:export-filename="../10f1112d/if.svg"
       inkscape:export-xdpi="96"
       inkscape:export-ydpi="96">
      <path
         d="m 0,336.348 c 0,-0.942 0.289,-0.996 1.594,-0.297 0.945,0.504 3.886,0.738 7.203,0.57 5.219,-0.262 5.762,-0.453 7.781,-2.715 2.332,-2.609 2.887,-6.418 1.356,-9.285 -0.454,-0.84 -3.067,-2.539 -5.813,-3.777 -5.976,-2.692 -7.621,-4.032 -7.621,-6.219 0,-3.559 5.672,-5.352 10.785,-3.41 1.59,0.605 1.961,0.473 2.379,-0.844 0.609,-1.914 -0.465,-2.664 -4.723,-3.309 -9.019,-1.363 -14.566,4.157 -11.32,11.274 0.57,1.258 2.797,2.871 6.512,4.723 6.254,3.121 7.32,4.281 6.594,7.171 -0.715,2.86 -4.848,3.965 -10.473,2.797 L 0,332.145 V 0 l 67.312,0.031 c 57.59,0.031 66.903,0.18 64.461,1.051 -14.781,5.273 -19.515,23.227 -9.164,34.742 10.625,11.821 29.329,8.805 35.895,-5.785 2.316,-5.148 2.121,-12.762 -0.453,-17.758 C 155.68,7.676 150.312,2.754 146.008,1.227 143.215,0.238 155.082,0.113 255.188,0.059 L 367.5,0 v 163.992 c 0,157.324 -0.055,163.942 -1.34,162.781 -0.734,-0.668 -3.277,-2.07 -5.648,-3.121 -4.641,-2.05 -5.754,-3.48 -4.188,-5.367 0.93,-1.117 4.965,-1.207 8.906,-0.195 0.676,0.172 1.204,-0.34 1.356,-1.305 0.281,-1.844 -1.414,-2.508 -6.438,-2.523 -4.113,-0.016 -7.492,1.73 -8.109,4.183 -0.828,3.297 0.82,5.407 6.262,8.008 5.219,2.492 6.406,4.113 4.601,6.289 -0.726,0.875 -1.914,1.078 -4.746,0.809 -2.082,-0.196 -4.371,-0.606 -5.094,-0.906 -1.89,-0.801 -1.761,2.312 0.137,3.328 3.531,1.89 12.719,0.293 13.797,-2.395 0.215,-0.523 0.414,0.145 0.445,1.484 L 367.5,337.5 H 183.75 C 19.047,337.5 0,337.379 0,336.348 Z m 36.418,-0.7 C 38.293,334.23 39,334.227 39,335.625 c 0,0.625 0.668,1.125 1.5,1.125 1.434,0 1.5,-0.5 1.5,-11.301 0,-11.293 0,-11.304 -1.688,-11.062 -1.605,0.226 -1.707,0.64 -2.062,8.371 -0.34,7.406 -0.531,8.258 -2.145,9.562 -2.093,1.692 -5.242,1.852 -7.265,0.371 -1.258,-0.918 -1.488,-2.218 -1.727,-9.75 -0.25,-7.929 -0.398,-8.691 -1.695,-8.691 -1.316,0 -1.418,0.68 -1.418,9.41 0,8.988 0.082,9.488 1.84,11.25 1.449,1.449 2.617,1.84 5.484,1.84 2.039,0 4.278,-0.484 5.094,-1.102 z M 52.5,321 v -15.75 h -3.75 v 31.5 h 3.75 z m 29.668,14.648 c 1.875,-1.418 2.582,-1.421 2.582,-0.023 0,0.625 0.668,1.125 1.5,1.125 1.453,0 1.5,-0.5 1.5,-15.75 v -15.75 h -1.875 c -1.836,0 -1.875,0.121 -1.875,5.668 v 5.668 l -1.668,-1.168 c -1.965,-1.375 -6.477,-1.523 -9.16,-0.301 -2.453,1.117 -4.922,6.246 -4.922,10.231 0,4.265 2.02,8.976 4.402,10.269 2.586,1.406 7.68,1.422 9.516,0.031 z m -7.875,-3.355 c -1.781,-1.781 -2.633,-5.879 -1.961,-9.461 1.023,-5.437 6.168,-7.398 9.828,-3.742 1.551,1.551 1.84,2.558 1.84,6.41 0,3.852 -0.289,4.859 -1.84,6.41 -2.254,2.25 -5.824,2.426 -7.867,0.383 z m 35.258,3.68 c 1.879,-1.004 1.996,-3.977 0.137,-3.457 -0.723,0.199 -2.102,0.593 -3.067,0.871 -4.371,1.261 -8.105,-0.887 -9.469,-5.449 -0.5,-1.672 -0.433,-1.688 7.047,-1.688 h 7.551 v -2.664 c 0,-5.512 -3.527,-9.336 -8.605,-9.332 -4.333,0.004 -7.461,2.191 -9.036,6.308 -2.25,5.887 -0.433,12.622 4.063,15.067 2.293,1.246 9.293,1.461 11.379,0.344 z M 97.262,321.938 c 1.652,-4.684 6.508,-6.118 9.183,-2.711 2.723,3.461 2.16,4.023 -4.047,4.023 -5.011,0 -5.55,-0.137 -5.136,-1.312 z m 34.156,2.624 0.207,-12.187 4.621,12 c 6.227,16.18 6.172,16.18 12.375,0.238 l 4.754,-12.222 0.207,12.23 c 0.203,12.16 0.215,12.227 1.875,11.992 1.648,-0.234 1.672,-0.394 1.871,-14.675 l 0.203,-14.438 h -5.855 l -3.567,9.188 c -1.961,5.054 -3.98,10.199 -4.484,11.437 l -0.922,2.25 -0.867,-1.875 c -0.477,-1.031 -2.481,-6.094 -4.453,-11.25 l -3.586,-9.375 -2.774,-0.234 -2.773,-0.231 v 14.668 c 0,14.11 0.059,14.672 1.48,14.672 1.407,0 1.493,-0.621 1.688,-12.188 z M 168,325.5 v -11.25 h -3.75 v 22.5 H 168 Z m 9.945,3.211 c 0.383,-7.523 0.539,-8.149 2.399,-9.75 1.094,-0.941 2.898,-1.707 4.011,-1.699 3.915,0.023 4.243,0.746 4.645,10.269 0.359,8.469 0.445,8.856 2.062,9.082 1.672,0.239 1.688,0.164 1.688,-9.222 0,-9.27 -0.039,-9.5 -1.984,-11.301 -2.582,-2.391 -8.137,-2.57 -10.957,-0.352 -1.887,1.485 -1.891,1.485 -2.278,0 -0.215,-0.82 -0.929,-1.488 -1.586,-1.488 -1.039,0 -1.195,1.457 -1.195,11.25 0,10.461 0.098,11.25 1.391,11.25 1.246,0 1.437,-0.855 1.804,-8.039 z m 32.246,6.551 c 1.887,-1.485 1.891,-1.485 2.278,0 0.215,0.82 0.929,1.488 1.586,1.488 1.031,0 1.195,-1.301 1.195,-9.41 0,-8.988 -0.082,-9.488 -1.84,-11.25 -2.062,-2.059 -6.582,-2.485 -10.797,-1.016 -2.496,0.871 -2.711,1.215 -1.726,2.766 0.461,0.73 1.117,0.777 2.66,0.187 4.371,-1.66 7.394,-0.535 8.226,3.059 0.45,1.934 0.387,1.965 -4.5,2.359 -6.519,0.524 -8.812,2.16 -9.132,6.532 -0.336,4.55 1.847,6.773 6.64,6.773 2.371,0 4.133,-0.484 5.41,-1.488 z m -7.543,-2.41 c -1.429,-1.434 -1.046,-4.164 0.77,-5.434 0.914,-0.645 3.109,-1.168 4.875,-1.168 3.047,0 3.207,0.109 3.207,2.195 0,3.891 -6.254,7 -8.852,4.407 z m 30.09,3.027 c 3.34,-1.781 4.414,-5.043 2.703,-8.234 -0.441,-0.829 -2.98,-2.485 -5.636,-3.676 -2.657,-1.192 -5.032,-2.692 -5.278,-3.328 -1.089,-2.836 3.731,-4.395 8.258,-2.676 1.582,0.601 1.961,0.473 2.367,-0.805 0.266,-0.84 0.258,-1.75 -0.019,-2.027 -0.281,-0.281 -3.039,-0.508 -6.137,-0.508 -5.012,0 -5.785,0.195 -7.062,1.77 -3.153,3.894 -1.184,7.667 5.316,10.183 1.855,0.719 3.797,1.656 4.312,2.082 1.454,1.199 1.11,3.445 -0.671,4.399 -1.59,0.851 -6.524,0.617 -9.079,-0.43 -1.046,-0.43 -1.312,-0.152 -1.312,1.359 0,1.18 0.5,2.032 1.312,2.246 2.692,0.704 9.344,0.485 10.926,-0.355 z m 41.586,-0.145 c 0.629,-0.39 0.926,-2.847 0.926,-7.652 V 321 h -5.301 c -5.07,0 -5.293,0.074 -5.062,1.688 0.199,1.402 0.777,1.726 3.425,1.917 l 3.188,0.231 v 4.047 c 0,4.035 -0.012,4.051 -2.625,4.543 -2.797,0.523 -7.34,-0.086 -9.59,-1.289 -4.387,-2.348 -5.875,-12.305 -2.574,-17.203 0.941,-1.395 2.543,-2.957 3.562,-3.473 2.258,-1.145 8.141,-1.242 10.93,-0.184 2.094,0.797 3.258,0.071 3.285,-2.054 0.028,-2.047 -8.547,-3.11 -13.652,-1.692 -6.492,1.805 -9.875,6.801 -9.875,14.594 0,7.063 2.566,11.621 7.789,13.828 2.055,0.867 14.094,0.695 15.574,-0.219 z m 21.738,0.543 c 1.168,-0.312 1.688,-1.019 1.688,-2.289 0,-1.59 -0.23,-1.758 -1.688,-1.226 -2.843,1.035 -8.664,0.711 -9.925,-0.551 -0.633,-0.637 -1.465,-2.238 -1.844,-3.559 l -0.688,-2.402 H 298.5 v -3.449 c 0,-2.926 -0.391,-3.84 -2.551,-6 -2.078,-2.082 -3.121,-2.551 -5.66,-2.551 -6.375,0 -10.016,3.918 -10.113,10.875 -0.106,7.617 3.5,11.625 10.449,11.613 2.063,-0.004 4.508,-0.211 5.437,-0.461 z M 284.25,321.879 c 0,-1.977 3.141,-4.629 5.484,-4.629 2.375,0 5.016,2.371 5.016,4.5 0,1.355 -0.5,1.5 -5.25,1.5 -4.582,0 -5.25,-0.176 -5.25,-1.371 z m 23.25,8.082 c 0,-4.656 0.363,-7.488 1.16,-9.031 1.274,-2.457 4.246,-3.969 6.438,-3.274 1.121,0.356 1.402,0.059 1.402,-1.48 0,-1.688 -0.312,-1.926 -2.523,-1.926 -1.387,0 -3.375,0.668 -4.418,1.488 -1.891,1.489 -1.891,1.489 -2.297,-0.066 -0.262,-1.004 -0.891,-1.461 -1.77,-1.289 -1.23,0.234 -1.387,1.281 -1.578,10.34 -0.113,5.543 -0.043,10.515 0.164,11.05 0.207,0.539 1.059,0.977 1.899,0.977 1.418,0 1.523,-0.465 1.523,-6.789 z m 23.582,5.641 c 1.856,-1.403 2.668,-1.395 2.668,0.023 0,0.625 0.668,1.125 1.5,1.125 1.414,0 1.5,-0.5 1.5,-8.59 0,-9.293 -0.668,-11.789 -3.492,-13.078 -2.258,-1.027 -7.012,-1.078 -9.586,-0.102 -2.57,0.981 -2.793,4.204 -0.234,3.442 6.402,-1.902 9.562,-0.906 9.562,3.008 0,1.656 -0.301,1.82 -3.359,1.82 -4.797,0 -9.063,1.895 -10.141,4.504 -1.145,2.758 -0.34,6.426 1.727,7.871 2.043,1.43 7.949,1.418 9.855,-0.023 z m -7.402,-3.032 c -2.926,-2.922 0.066,-6.32 5.57,-6.32 3.52,0 3.75,0.117 3.75,1.91 0,4.258 -6.43,7.305 -9.32,4.41 z m 22.82,-7.121 c 0,-11.293 0,-11.304 -1.688,-11.062 -1.64,0.23 -1.691,0.508 -1.898,10.324 -0.113,5.551 -0.043,10.527 0.164,11.062 0.207,0.539 1.059,0.977 1.899,0.977 1.464,0 1.523,-0.441 1.523,-11.301 z M 167.863,308.805 c 0.203,-1.77 -0.031,-2.055 -1.687,-2.055 -1.516,0 -1.926,0.371 -1.926,1.75 0,0.961 0.238,1.988 0.527,2.277 1.11,1.11 2.86,-0.007 3.086,-1.972 z m 178.629,1.328 c 1.246,-1.5 0.414,-3.383 -1.492,-3.383 -1.703,0 -2.652,1.621 -1.98,3.375 0.554,1.441 2.281,1.445 3.472,0.008 z M 80.41,282.938 l 0.215,-7.313 6.563,-0.215 6.562,-0.219 V 268.5 H 80.18 l 0.445,-9.375 13.875,-0.43 V 252 H 72 v 38.25 h 8.195 z m 44.09,3.937 V 283.5 h -14.25 v -9.75 H 123 V 267 h -12.75 v -8.25 H 124.5 V 252 H 102 v 38.25 h 22.5 z m 27.629,2.293 c 4.726,-1.668 7.48,-4.106 9.656,-8.551 1.629,-3.328 1.988,-5.117 1.985,-9.781 -0.008,-6.613 -1.36,-10.137 -5.395,-14.055 C 154.75,253.258 149.941,252 140.113,252 H 132 v 38.25 h 8.531 c 5.516,0 9.614,-0.383 11.598,-1.082 z M 140.25,271.125 V 258.75 h 3.188 c 3.863,0.004 7.789,1.887 9.882,4.742 2.235,3.047 2.235,12.223 0,15.266 -2.093,2.855 -6.019,4.738 -9.882,4.742 h -3.188 z m 54,15.75 V 283.5 H 180 v -9.75 h 12.75 V 267 H 180 v -8.25 h 14.25 V 252 h -22.5 v 38.25 h 22.5 z M 210,283.125 V 276 h 2.078 c 1.82,0 2.637,0.898 6.5,7.145 l 4.422,7.148 9.375,-0.211 9.379,-0.207 1.434,-4.313 1.437,-4.312 h 13.355 l 1.325,4.5 1.32,4.496 4.656,0.004 h 4.657 l -4.024,-11.438 c -2.211,-6.292 -5.234,-14.812 -6.719,-18.937 -1.48,-4.125 -2.695,-7.602 -2.695,-7.723 0,-0.121 -2.41,-0.121 -5.359,0 l -5.36,0.223 -6.453,18.551 c -3.551,10.203 -6.656,18.554 -6.902,18.562 -0.563,0.016 -10.426,-14.75 -10.426,-15.605 0,-0.348 0.785,-1.051 1.746,-1.567 4.313,-2.304 5.942,-10.101 3.117,-14.882 -2.347,-3.977 -5.492,-5.024 -15.925,-5.309 l -9.188,-0.246 V 290.25 H 210 Z m 36.949,-9.937 c 2.149,-7.571 3.934,-12.938 4.301,-12.938 0.367,0 2.152,5.367 4.301,12.938 0.328,1.148 -0.207,1.312 -4.301,1.312 -4.094,0 -4.629,-0.164 -4.301,-1.312 z M 210,264.086 v -5.336 h 2.203 c 2.652,0 6.18,1.258 6.957,2.484 1.008,1.586 0.625,4.754 -0.722,5.957 -0.723,0.649 -2.915,1.414 -4.876,1.704 L 210,269.422 Z m 88.5,22.789 V 283.5 H 282.75 V 252 h -8.25 v 38.25 h 24 z M 124.082,243.344 c 3.836,-1.821 5.66,-5.004 5.664,-9.879 0.004,-4.977 -2.289,-7.797 -9.308,-11.434 -6.422,-3.324 -7.696,-4.695 -6.606,-7.09 1.102,-2.418 4.219,-2.984 8.797,-1.593 2.059,0.625 3.961,1.14 4.226,1.144 0.418,0.008 2.895,-5.433 2.895,-6.351 0,-0.832 -8.191,-2.641 -11.949,-2.641 -7.906,0.004 -12.426,3.961 -12.426,10.875 0,4.996 1.598,7.359 7.187,10.625 7.876,4.605 8.563,5.148 8.821,6.969 0.551,3.859 -5.645,5.004 -12.66,2.34 l -3.793,-1.442 0.445,8.508 3.375,0.922 c 4.406,1.203 11.754,0.746 15.332,-0.953 z m 117.52,-0.442 c 1.949,-1.078 3.898,-2.968 4.925,-4.781 1.602,-2.824 1.7,-3.832 1.711,-17.433 l 0.012,-14.438 h -8.156 l -0.469,27.883 -2.105,1.808 c -2.231,1.918 -5.743,2.352 -9.004,1.114 C 225.633,235.957 225,232.695 225,218.887 V 206.25 h -8.25 v 14.324 c 0,11.727 0.223,14.793 1.23,16.918 1.45,3.055 4.848,5.817 8.52,6.922 4.164,1.254 11.398,0.531 15.102,-1.512 z m 73.781,-0.242 c 1.797,-1.055 3.965,-2.89 4.812,-4.086 2.457,-3.445 4.047,-10.883 3.457,-16.125 -1.273,-11.23 -7.187,-16.902 -17.652,-16.929 -6.902,-0.016 -10.16,1.101 -13.777,4.722 -3.852,3.86 -4.973,7.383 -4.973,15.637 0,10.07 3.551,15.734 11.504,18.344 4.719,1.547 12.582,0.808 16.629,-1.563 z m -14.442,-5.683 c -5.726,-2.301 -6.988,-16.575 -1.929,-21.864 3.89,-4.074 11.621,-3.187 14.105,1.617 3.028,5.856 1.992,15.782 -2,19.141 -2.363,1.988 -6.785,2.469 -10.176,1.106 z M 54,225.375 V 206.25 H 45.75 V 244.5 H 54 Z m 17.082,5.227 c -0.211,-7.645 -0.234,-13.754 -0.055,-13.575 0.18,0.18 3.801,6.352 8.047,13.711 l 7.719,13.387 5.355,0.219 5.352,0.222 V 206.25 H 90 v 27.375 L 74.141,206.25 H 63 v 38.25 h 8.461 z M 152.25,228.75 V 213 h 10.5 v -6.75 h -30 V 213 h 10.5 v 31.5 h 9 z m 24,-3.375 V 206.25 H 168 v 38.25 h 8.25 z M 201,228.75 V 213 h 10.5 v -6.75 H 182.25 V 213 H 192 v 31.5 h 9 z m 72,0 V 213 h 10.5 v -6.75 H 254.25 V 213 H 264 v 31.5 h 9 z M 157.473,177.801 c 0.468,-0.875 0.777,-8.028 0.777,-18 0,-15.551 -0.09,-16.641 -1.5,-18.051 -1.406,-1.406 -2.5,-1.5 -17.832,-1.5 -13.57,0 -16.617,0.199 -18,1.168 -1.641,1.148 -1.668,1.437 -1.668,18.598 0,12.558 0.25,17.687 0.898,18.336 0.653,0.648 5.864,0.898 18.727,0.898 16.852,0 17.863,-0.078 18.598,-1.449 z m 46.109,-0.219 c 0.965,-1.379 1.168,-4.355 1.168,-17.215 0,-16.359 -0.426,-18.902 -3.277,-19.668 -0.879,-0.234 -8.618,-0.433 -17.196,-0.437 C 163.363,140.246 165,138.578 165,159.926 c 0,13.258 0.199,16.273 1.168,17.656 1.148,1.645 1.434,1.668 18.707,1.668 17.273,0 17.559,-0.023 18.707,-1.668 z M 156.75,132 c 1.41,-1.41 1.5,-2.5 1.5,-18.32 0,-14.293 -0.176,-17 -1.18,-18 -1.004,-1.004 -3.761,-1.18 -18.597,-1.18 -12.551,0 -17.676,0.25 -18.325,0.898 -0.648,0.649 -0.898,5.778 -0.898,18.336 0,17.161 0.027,17.45 1.668,18.598 1.383,0.969 4.43,1.168 18,1.168 15.332,0 16.426,-0.094 17.832,-1.5 z m 46.168,0.438 c 1.355,-0.989 1.473,-2.243 1.687,-17.696 0.192,-14.148 0.051,-16.898 -0.957,-18.437 L 202.465,94.5 h -17.567 c -17.3,0 -17.582,0.023 -18.73,1.668 -0.965,1.379 -1.168,4.363 -1.168,17.297 0,15.269 0.355,17.996 2.551,19.461 0.453,0.304 8.269,0.554 17.367,0.562 13.109,0.008 16.848,-0.211 18,-1.05 z M 249,132 c 1.41,-1.41 1.5,-2.5 1.5,-18.32 0,-14.293 -0.176,-17 -1.18,-18 -1.004,-1.004 -3.761,-1.18 -18.597,-1.18 -12.551,0 -17.676,0.25 -18.325,0.898 -0.648,0.649 -0.898,5.778 -0.898,18.336 0,17.161 0.027,17.45 1.668,18.598 1.383,0.969 4.43,1.168 18,1.168 15.332,0 16.426,-0.094 17.832,-1.5 z M 156.879,85.758 c 1.25,-1.133 1.371,-2.719 1.371,-18.129 0,-14.66 -0.164,-17.067 -1.242,-18.258 -1.133,-1.25 -2.727,-1.371 -18.32,-1.371 -14.528,0 -17.258,0.176 -18.258,1.18 -1.004,1 -1.18,3.734 -1.18,18.32 0,14.586 0.176,17.32 1.18,18.32 1,1.004 3.718,1.18 18.129,1.18 14.718,0 17.129,-0.164 18.32,-1.242 z M 203.25,85.5 c 1.41,-1.41 1.5,-2.5 1.5,-18 0,-15.5 -0.09,-16.59 -1.5,-18 -1.41,-1.41 -2.5,-1.5 -18.23,-1.5 -13.27,0 -17.036,0.219 -18.188,1.066 -1.371,1 -1.457,2.106 -1.457,18.434 0,16.328 0.086,17.434 1.457,18.434 1.152,0.847 4.918,1.066 18.188,1.066 15.73,0 16.82,-0.09 18.23,-1.5 z m -0.332,-45.312 c 1.355,-0.989 1.473,-2.243 1.687,-17.696 0.192,-14.148 0.051,-16.898 -0.957,-18.437 L 202.465,2.25 h -35.18 l -1.183,1.805 c -1.008,1.539 -1.149,4.289 -0.957,18.437 0.214,15.453 0.332,16.707 1.687,17.696 2.125,1.55 33.961,1.55 36.086,0 z M 249,39.75 c 1.41,-1.41 1.5,-2.5 1.5,-18.129 0,-14.422 -0.164,-16.809 -1.242,-18 -1.133,-1.254 -2.735,-1.371 -18.598,-1.371 -12.504,0 -17.613,0.25 -18.262,0.898 -0.644,0.649 -0.898,5.731 -0.898,18.129 0,14.981 0.16,17.411 1.242,18.602 1.133,1.25 2.715,1.371 18,1.371 15.758,0 16.848,-0.09 18.258,-1.5 z"
         style="fill:#fefefe;fill-opacity:1;fill-rule:nonzero;stroke:none"
         id="path7474" />
      <path
         d="m 165.32,160.125 c 0,-9.074 0.11,-12.684 0.239,-8.02 0.132,4.661 0.132,12.086 0,16.5 -0.133,4.411 -0.239,0.594 -0.239,-8.48 z m 39,0 c 0,-9.074 0.11,-12.684 0.239,-8.02 0.132,4.661 0.132,12.086 0,16.5 -0.133,4.411 -0.239,0.594 -0.239,-8.48 z m -74.008,-19.684 c 4.641,-0.132 12.235,-0.132 16.876,0 4.64,0.129 0.843,0.239 -8.438,0.239 -9.281,0 -13.078,-0.11 -8.438,-0.239 z m 46.083,0 c 4.414,-0.132 11.839,-0.132 16.5,0 4.664,0.129 1.054,0.239 -8.02,0.239 -9.074,0 -12.891,-0.106 -8.48,-0.239 z M 165.32,113.625 c 0,-9.074 0.11,-12.684 0.239,-8.02 0.132,4.661 0.132,12.086 0,16.5 -0.133,4.411 -0.239,0.594 -0.239,-8.48 z m 39,0 c 0,-9.074 0.11,-12.684 0.239,-8.02 0.132,4.661 0.132,12.086 0,16.5 -0.133,4.411 -0.239,0.594 -0.239,-8.48 z m 0,-46.125 c 0,-9.281 0.11,-13.078 0.239,-8.438 0.132,4.641 0.132,12.235 0,16.876 -0.129,4.64 -0.239,0.843 -0.239,-8.438 z m -39.004,0 c 0,-8.867 0.11,-12.496 0.243,-8.062 0.132,4.433 0.132,11.691 0,16.124 -0.133,4.434 -0.243,0.805 -0.243,-8.062 z m 0.004,-46.125 c 0,-9.074 0.11,-12.684 0.239,-8.02 0.132,4.661 0.132,12.086 0,16.5 -0.133,4.411 -0.239,0.594 -0.239,-8.48 z m 39,0 c 0,-9.074 0.11,-12.684 0.239,-8.02 0.132,4.661 0.132,12.086 0,16.5 -0.133,4.411 -0.239,0.594 -0.239,-8.48 z"
         style="fill:#cde4cb;fill-opacity:1;fill-rule:nonzero;stroke:none"
         id="path7476" />
      <path
         d="m 2.859,336.238 c 0.543,-0.218 1.188,-0.191 1.438,0.059 0.25,0.25 -0.195,0.426 -0.985,0.394 -0.874,-0.035 -1.05,-0.214 -0.453,-0.453 z m 36.703,0.016 c 0.516,-0.207 1.36,-0.207 1.876,0 0.515,0.207 0.093,0.379 -0.938,0.379 -1.031,0 -1.453,-0.172 -0.938,-0.379 z M 48.75,321 v -15.75 h 3.75 v 31.5 h -3.75 z m 3,0 c 0,-12.832 -0.164,-15 -1.125,-15 -0.961,0 -1.125,2.168 -1.125,15 0,12.832 0.164,15 1.125,15 0.961,0 1.125,-2.168 1.125,-15 z m 33.562,15.254 c 0.516,-0.207 1.36,-0.207 1.876,0 0.515,0.207 0.093,0.379 -0.938,0.379 -1.031,0 -1.453,-0.172 -0.938,-0.379 z m 21.797,-0.016 c 0.543,-0.218 1.188,-0.191 1.438,0.059 0.25,0.25 -0.195,0.426 -0.985,0.394 -0.874,-0.035 -1.05,-0.214 -0.453,-0.453 z m 21.703,0.016 c 0.516,-0.207 1.36,-0.207 1.876,0 0.515,0.207 0.093,0.379 -0.938,0.379 -1.031,0 -1.453,-0.172 -0.938,-0.379 z m 11.938,-0.004 c -0.273,-0.273 -0.496,-0.867 -0.488,-1.312 0.008,-0.551 0.187,-0.54 0.562,0.039 0.305,0.468 1.227,1.019 2.051,1.226 1.449,0.359 1.449,0.375 -0.063,0.461 -0.859,0.047 -1.789,-0.141 -2.062,-0.414 z m 14.297,0.012 c 1.648,-0.356 1.676,-0.571 1.898,-14.563 l 0.231,-14.199 -0.028,14.438 -0.023,14.437 -1.875,0.121 c -1.621,0.109 -1.648,0.074 -0.203,-0.234 z m 10.515,-0.043 c 1.653,-0.317 1.688,-0.535 1.688,-10.719 0,-10.184 -0.035,-10.402 -1.688,-10.719 -1.445,-0.281 -1.394,-0.34 0.376,-0.429 L 168,314.25 v 22.5 l -2.062,-0.102 c -1.77,-0.089 -1.821,-0.148 -0.376,-0.429 z m 9.75,0.035 c 0.516,-0.207 1.36,-0.207 1.876,0 0.515,0.207 0.093,0.379 -0.938,0.379 -1.031,0 -1.453,-0.172 -0.938,-0.379 z m 14.012,-0.496 c -0.211,-0.543 -0.269,-4.34 -0.136,-8.438 l 0.25,-7.445 0.156,8.012 c 0.148,7.652 0.23,8.023 1.844,8.336 l 1.687,0.324 -1.711,0.101 c -0.941,0.055 -1.883,-0.343 -2.09,-0.89 z m 11.305,0.25 c -0.262,-0.426 0.039,-0.551 0.707,-0.293 1.301,0.496 1.539,1.035 0.457,1.035 -0.387,0 -0.91,-0.332 -1.164,-0.742 z m 11.965,-0.059 c -0.274,-0.437 -0.293,-1 -0.043,-1.25 0.246,-0.246 0.449,-0.082 0.449,0.371 0,0.45 0.59,0.973 1.312,1.164 1.184,0.309 1.188,0.352 0.043,0.43 -0.695,0.047 -1.488,-0.273 -1.761,-0.715 z m 56.468,0.305 c 0.516,-0.207 1.36,-0.207 1.876,0 0.515,0.207 0.093,0.379 -0.938,0.379 -1.031,0 -1.453,-0.172 -0.938,-0.379 z m 24.797,-0.016 c 0.543,-0.218 1.188,-0.191 1.438,0.059 0.25,0.25 -0.195,0.426 -0.985,0.394 -0.874,-0.035 -1.05,-0.214 -0.453,-0.453 z m 10.219,-0.465 c -0.207,-0.535 -0.277,-5.507 -0.164,-11.05 0.191,-9.059 0.348,-10.106 1.578,-10.34 0.891,-0.172 1.508,0.293 1.781,1.332 0.403,1.543 0.469,1.555 2.008,0.254 l 1.594,-1.344 -1.43,1.687 c -1.765,2.086 -2.695,2.153 -2.695,0.188 0,-0.832 -0.5,-1.5 -1.125,-1.5 -0.945,0 -1.125,1.66 -1.125,10.449 0,10.239 0.035,10.453 1.688,10.77 l 1.687,0.328 -1.711,0.101 c -0.941,0.055 -1.879,-0.336 -2.086,-0.875 z m 30.586,0.465 c 1.109,-0.293 1.324,-1.57 1.527,-9.101 l 0.235,-8.762 0.164,9.187 c 0.16,9.098 0.144,9.188 -1.528,9.102 -1.234,-0.066 -1.339,-0.18 -0.398,-0.426 z m 8.414,-0.465 c -0.207,-0.535 -0.277,-5.511 -0.164,-11.062 0.207,-9.883 0.246,-10.086 1.91,-10.188 1.414,-0.082 1.446,-0.039 0.188,0.243 -1.426,0.32 -1.512,0.925 -1.512,10.734 0,10.184 0.035,10.402 1.688,10.719 l 1.687,0.328 -1.711,0.101 c -0.941,0.055 -1.879,-0.336 -2.086,-0.875 z M 0.281,334.898 c -0.234,-0.605 -0.277,-1.531 -0.101,-2.062 0.175,-0.527 0.5,-0.031 0.718,1.102 0.422,2.214 0.075,2.761 -0.617,0.96 z m 25.125,-0.21 c -0.933,-1.192 -0.91,-1.215 0.282,-0.282 0.722,0.563 1.312,1.156 1.312,1.313 0,0.617 -0.617,0.219 -1.594,-1.031 z m 57.262,0.128 c 0.715,-0.742 1.457,-1.191 1.656,-0.992 0.196,0.196 -0.386,0.805 -1.297,1.352 -1.578,0.949 -1.593,0.929 -0.359,-0.36 z m 27.207,-0.761 c 0,-0.993 0.254,-1.805 0.563,-1.805 0.308,0 0.562,0.656 0.562,1.457 0,0.801 -0.254,1.609 -0.562,1.801 -0.309,0.191 -0.563,-0.461 -0.563,-1.453 z m 99.375,1.664 c 0,-0.157 0.59,-0.75 1.312,-1.313 1.192,-0.933 1.215,-0.91 0.282,0.282 -0.977,1.25 -1.594,1.648 -1.594,1.031 z m 11.25,-1.594 c 0,-1.031 0.289,-1.875 0.645,-1.875 0.355,0 0.484,0.844 0.289,1.875 -0.196,1.031 -0.489,1.875 -0.645,1.875 -0.16,0 -0.289,-0.844 -0.289,-1.875 z m 53.23,1.383 c 0.442,-0.219 0.77,-3.25 0.77,-7.07 V 321.75 H 270 c -3.422,0 -4.5,0.258 -4.5,1.082 0,0.699 1,1.188 2.812,1.375 l 2.813,0.297 -3,-0.066 c -2.516,-0.051 -3.039,-0.336 -3.238,-1.75 -0.231,-1.614 -0.008,-1.688 5.09,-1.688 h 5.328 l -0.215,7.25 c -0.152,5.141 -0.492,7.309 -1.172,7.445 -0.523,0.106 -0.609,0.02 -0.188,-0.187 z m 46.426,-0.82 c -0.933,-1.192 -0.91,-1.215 0.282,-0.282 0.722,0.563 1.312,1.156 1.312,1.313 0,0.617 -0.617,0.219 -1.594,-1.031 z m 32.094,0.812 c -0.684,-0.684 -0.633,-3.25 0.062,-3.25 0.309,0 0.563,0.844 0.563,1.875 0,1.031 -0.027,1.875 -0.063,1.875 -0.035,0 -0.289,-0.227 -0.562,-0.5 z M 95.906,333.938 c -0.933,-1.192 -0.91,-1.215 0.282,-0.282 0.722,0.563 1.312,1.156 1.312,1.313 0,0.617 -0.617,0.219 -1.594,-1.031 z m 186.75,0 c -0.933,-1.192 -0.91,-1.215 0.282,-0.282 1.25,0.977 1.648,1.594 1.031,1.594 -0.157,0 -0.75,-0.59 -1.313,-1.312 z m 48.844,1.003 c 0,-0.14 0.508,-0.679 1.125,-1.191 0.648,-0.539 1.125,-0.609 1.125,-0.172 0,0.418 -0.508,0.957 -1.125,1.192 -0.617,0.238 -1.125,0.316 -1.125,0.171 z m -104.391,-0.953 c 0.543,-0.218 1.188,-0.191 1.438,0.059 0.25,0.25 -0.195,0.426 -0.985,0.394 -0.874,-0.035 -1.05,-0.214 -0.453,-0.453 z m 99,0 c 0.543,-0.218 1.188,-0.191 1.438,0.059 0.25,0.25 -0.195,0.426 -0.985,0.394 -0.874,-0.035 -1.05,-0.214 -0.453,-0.453 z m 32.25,0 c 0.543,-0.218 1.188,-0.191 1.438,0.059 0.25,0.25 -0.195,0.426 -0.985,0.394 -0.874,-0.035 -1.05,-0.214 -0.453,-0.453 z m -354,-0.75 c 0.543,-0.218 1.188,-0.191 1.438,0.059 0.25,0.25 -0.195,0.426 -0.985,0.394 -0.874,-0.035 -1.05,-0.214 -0.453,-0.453 z m 30.203,0.301 c 0.172,-0.117 0.989,-0.707 1.813,-1.312 1.387,-1.02 1.422,-1.004 0.469,0.211 -0.563,0.722 -1.379,1.312 -1.813,1.312 -0.429,0 -0.64,-0.094 -0.469,-0.211 z m 45.75,0 c 0.172,-0.117 0.989,-0.707 1.813,-1.312 1.387,-1.02 1.422,-1.004 0.469,0.211 -0.563,0.722 -1.379,1.312 -1.813,1.312 -0.429,0 -0.64,-0.094 -0.469,-0.211 z m 26.797,-0.301 c 0.543,-0.218 1.188,-0.191 1.438,0.059 0.25,0.25 -0.195,0.426 -0.985,0.394 -0.874,-0.035 -1.05,-0.214 -0.453,-0.453 z m 100.703,0.317 c 0.172,-0.11 1.157,-0.867 2.188,-1.688 l 1.875,-1.492 -1.43,1.687 c -0.785,0.93 -1.769,1.688 -2.187,1.688 -0.418,0 -0.617,-0.09 -0.446,-0.195 z m 155.247,-1.117 c 0.902,-1.446 0.902,-1.93 0,-3.376 -0.961,-1.542 -0.946,-1.601 0.195,-0.656 0.687,0.563 1.246,1.621 1.246,2.344 0,0.723 -0.559,1.781 -1.246,2.344 -1.141,0.945 -1.156,0.886 -0.195,-0.656 z M 235.676,330.75 c 0,-1.445 0.152,-2.035 0.34,-1.312 0.191,0.722 0.191,1.902 0,2.624 -0.188,0.723 -0.34,0.133 -0.34,-1.312 z m 83.219,-0.375 c 0.015,-1.238 0.183,-1.652 0.375,-0.922 0.191,0.727 0.179,1.742 -0.028,2.25 -0.207,0.508 -0.359,-0.09 -0.347,-1.328 z m -117.836,-0.063 c 0.035,-0.874 0.214,-1.05 0.453,-0.453 0.218,0.543 0.191,1.188 -0.059,1.438 -0.25,0.25 -0.426,-0.195 -0.394,-0.985 z m -59.309,-0.355 c 0,-0.437 0.336,-0.586 0.75,-0.332 0.414,0.254 0.75,0.613 0.75,0.793 0,0.184 -0.336,0.332 -0.75,0.332 -0.414,0 -0.75,-0.355 -0.75,-0.793 z m 69.75,-1.785 c 0,-1.563 -0.41,-1.875 -2.812,-2.125 l -2.813,-0.293 3.187,-0.129 c 3.071,-0.121 3.188,-0.043 3.188,2.125 0,1.238 -0.168,2.25 -0.375,2.25 -0.207,0 -0.375,-0.824 -0.375,-1.828 z M 38.582,321.938 c 0.043,-7.055 0.102,-7.317 1.742,-7.415 1.36,-0.078 1.403,-0.031 0.215,0.239 -1.328,0.3 -1.512,1.086 -1.742,7.414 l -0.258,7.078 z m 29.895,3.562 c 0,-2.27 0.14,-3.195 0.312,-2.062 0.172,1.132 0.172,2.992 0,4.124 -0.172,1.133 -0.312,0.208 -0.312,-2.062 z m 215.082,2.562 c 0.035,-0.874 0.214,-1.05 0.453,-0.453 0.218,0.543 0.191,1.188 -0.059,1.438 -0.25,0.25 -0.426,-0.195 -0.394,-0.985 z M 84.188,325.875 c 0.011,-1.648 0.164,-2.238 0.343,-1.305 0.18,0.934 0.172,2.285 -0.015,3 -0.188,0.719 -0.336,-0.047 -0.328,-1.695 z m 9.015,-0.375 c 0,-1.855 0.149,-2.617 0.328,-1.688 0.176,0.93 0.176,2.446 0,3.376 -0.179,0.929 -0.328,0.167 -0.328,-1.688 z M 198,327.992 c 0,-0.418 0.758,-1.402 1.688,-2.187 l 1.687,-1.43 -1.492,1.875 c -0.821,1.031 -1.578,2.016 -1.688,2.188 C 198.09,328.609 198,328.41 198,327.992 Z m 35.906,-1.554 c -0.933,-1.192 -0.91,-1.215 0.282,-0.282 1.25,0.977 1.648,1.594 1.031,1.594 -0.157,0 -0.75,-0.59 -1.313,-1.312 z m 46.02,-0.938 c 0,-1.445 0.152,-2.035 0.34,-1.312 0.191,0.722 0.191,1.902 0,2.624 -0.188,0.723 -0.34,0.133 -0.34,-1.312 z m -266.52,0.188 c -0.933,-1.192 -0.91,-1.215 0.282,-0.282 0.722,0.563 1.312,1.156 1.312,1.313 0,0.617 -0.617,0.219 -1.594,-1.031 z m 315.664,0.031 c 0.934,-0.18 2.285,-0.172 3,0.015 0.719,0.188 -0.047,0.336 -1.695,0.328 -1.648,-0.011 -2.238,-0.164 -1.305,-0.343 z m -74.605,-3.594 c 0.004,-2.063 0.152,-2.816 0.324,-1.676 0.172,1.137 0.168,2.824 -0.012,3.75 -0.175,0.922 -0.32,-0.011 -0.312,-2.074 z m -238.059,1.313 c -0.933,-1.192 -0.91,-1.215 0.282,-0.282 1.25,0.977 1.648,1.594 1.031,1.594 -0.157,0 -0.75,-0.59 -1.313,-1.312 z m 161.461,-0.188 c 0,-1.031 0.172,-1.453 0.379,-0.938 0.207,0.516 0.207,1.36 0,1.876 -0.207,0.515 -0.379,0.093 -0.379,-0.938 z m 72.821,-1.125 c 0.011,-1.648 0.164,-2.238 0.343,-1.305 0.18,0.934 0.172,2.285 -0.015,3 -0.188,0.719 -0.336,-0.047 -0.328,-1.695 z m 102.468,1.313 c -0.933,-1.192 -0.91,-1.215 0.282,-0.282 1.25,0.977 1.648,1.594 1.031,1.594 -0.157,0 -0.75,-0.59 -1.313,-1.312 z m -253.574,0.011 c 1.766,-0.156 4.465,-0.156 6,0.008 1.535,0.16 0.094,0.289 -3.207,0.285 -3.301,-0.004 -4.559,-0.133 -2.793,-0.293 z m 106.106,0.035 c 0.722,-0.191 1.902,-0.191 2.624,0 0.723,0.188 0.133,0.34 -1.312,0.34 -1.445,0 -2.035,-0.152 -1.312,-0.34 z M 284,323.5 c -0.273,-0.273 -0.496,-0.867 -0.488,-1.312 0.004,-0.446 0.297,-0.36 0.648,0.191 0.457,0.723 2.102,0.933 5.918,0.75 2.906,-0.141 5.125,0 4.934,0.309 -0.434,0.695 -10.324,0.75 -11.012,0.062 z m 42.82,-0.031 c 0.934,-0.18 2.285,-0.172 3,0.015 0.719,0.188 -0.047,0.336 -1.695,0.328 -1.648,-0.011 -2.238,-0.164 -1.305,-0.343 z m -105.976,-1.02 c -0.274,-0.437 -0.332,-0.961 -0.137,-1.156 0.195,-0.195 0.559,0.164 0.801,0.801 0.508,1.32 0.074,1.554 -0.664,0.355 z m 112.215,-0.387 c 0.035,-0.874 0.214,-1.05 0.453,-0.453 0.218,0.543 0.191,1.188 -0.059,1.438 -0.25,0.25 -0.426,-0.195 -0.394,-0.985 z m -108.661,-0.46 c -1.242,-1.243 -1.125,-2.481 0.348,-3.696 1.133,-0.941 1.156,-0.886 0.231,0.594 -0.836,1.348 -0.84,1.836 -0.028,2.812 1.153,1.391 0.758,1.594 -0.551,0.29 z m -12.839,-1.04 c 0.035,-0.874 0.214,-1.05 0.453,-0.453 0.218,0.543 0.191,1.188 -0.059,1.438 -0.25,0.25 -0.426,-0.195 -0.394,-0.985 z m 140.336,-0.687 c 0.015,-1.238 0.183,-1.652 0.375,-0.922 0.191,0.727 0.179,1.742 -0.028,2.25 -0.207,0.508 -0.359,-0.09 -0.347,-1.328 z M 98.625,318.75 c 0.746,-0.824 1.527,-1.5 1.734,-1.5 0.203,0 -0.238,0.676 -0.984,1.5 -0.746,0.824 -1.527,1.5 -1.734,1.5 -0.203,0 0.238,-0.676 0.984,-1.5 z m 81.168,-0.039 c 0.914,-0.965 1.809,-1.602 1.988,-1.418 0.176,0.184 -0.574,0.973 -1.668,1.754 l -1.988,1.418 z m 105.582,0.039 c 0.746,-0.824 1.527,-1.5 1.734,-1.5 0.203,0 -0.238,0.676 -0.984,1.5 -0.746,0.824 -1.527,1.5 -1.734,1.5 -0.203,0 0.238,-0.676 0.984,-1.5 z m -179.719,-0.562 c -0.933,-1.192 -0.91,-1.215 0.282,-0.282 0.722,0.563 1.312,1.156 1.312,1.313 0,0.617 -0.617,0.219 -1.594,-1.031 z m -100.5,-0.75 c -0.933,-1.192 -0.91,-1.215 0.282,-0.282 0.722,0.563 1.312,1.156 1.312,1.313 0,0.617 -0.617,0.219 -1.594,-1.031 z M 210,318 c -0.676,-0.438 -0.77,-0.73 -0.23,-0.738 0.488,-0.008 1.101,0.324 1.355,0.738 0.574,0.93 0.316,0.93 -1.125,0 z M 95.25,317.719 c 0,-0.157 0.59,-0.75 1.312,-1.313 1.192,-0.933 1.215,-0.91 0.282,0.282 -0.977,1.25 -1.594,1.648 -1.594,1.031 z m 13.055,-1.407 -1.43,-1.687 1.687,1.43 c 1.586,1.34 2.028,1.945 1.43,1.945 -0.144,0 -0.902,-0.758 -1.687,-1.688 z M 282,317.719 c 0,-0.157 0.59,-0.75 1.312,-1.313 1.192,-0.933 1.215,-0.91 0.282,0.282 -0.977,1.25 -1.594,1.648 -1.594,1.031 z m 33.375,-0.469 c 0.254,-0.414 0.613,-0.75 0.793,-0.75 0.184,0 0.332,0.336 0.332,0.75 0,0.414 -0.355,0.75 -0.793,0.75 -0.437,0 -0.586,-0.336 -0.332,-0.75 z M 82.406,315.938 c -0.933,-1.192 -0.91,-1.215 0.282,-0.282 1.226,0.957 1.312,0.649 1.312,-4.687 v -5.719 l 2.062,0.102 c 1.77,0.089 1.821,0.148 0.376,0.429 -1.571,0.301 -1.688,0.715 -1.688,5.895 0,5.676 -0.512,6.601 -2.344,4.262 z m 130.5,0 c -0.933,-1.192 -0.91,-1.215 0.282,-0.282 0.722,0.563 1.312,1.156 1.312,1.313 0,0.617 -0.617,0.219 -1.594,-1.031 z m 8.344,1.031 c 0,-0.157 0.59,-0.75 1.312,-1.313 1.192,-0.933 1.215,-0.91 0.282,0.282 -0.977,1.25 -1.594,1.648 -1.594,1.031 z M 175.875,315 c -1.223,-0.527 -1.266,-0.656 -0.23,-0.699 0.695,-0.028 1.476,0.285 1.73,0.699 0.531,0.863 0.508,0.863 -1.5,0 z M 24.562,314.504 c 0.516,-0.207 1.36,-0.207 1.876,0 0.515,0.207 0.093,0.379 -0.938,0.379 -1.031,0 -1.453,-0.172 -0.938,-0.379 z m 162.797,-0.016 c 0.543,-0.218 1.188,-0.191 1.438,0.059 0.25,0.25 -0.195,0.426 -0.985,0.394 -0.874,-0.035 -1.05,-0.214 -0.453,-0.453 z m 44.25,0 c 0.543,-0.218 1.188,-0.191 1.438,0.059 0.25,0.25 -0.195,0.426 -0.985,0.394 -0.874,-0.035 -1.05,-0.214 -0.453,-0.453 z m 93.75,0 c 0.543,-0.218 1.188,-0.191 1.438,0.059 0.25,0.25 -0.195,0.426 -0.985,0.394 -0.874,-0.035 -1.05,-0.214 -0.453,-0.453 z m 37.5,0 c 0.543,-0.218 1.188,-0.191 1.438,0.059 0.25,0.25 -0.195,0.426 -0.985,0.394 -0.874,-0.035 -1.05,-0.214 -0.453,-0.453 z M 256.5,313.969 c 0,-0.157 0.59,-0.75 1.312,-1.313 1.192,-0.933 1.215,-0.91 0.282,0.282 -0.977,1.25 -1.594,1.648 -1.594,1.031 z m -252,-1.5 c 0,-0.157 0.59,-0.75 1.312,-1.313 1.192,-0.933 1.215,-0.91 0.282,0.282 -0.977,1.25 -1.594,1.648 -1.594,1.031 z M 165,310.961 c 0,-0.156 0.676,-0.461 1.5,-0.68 0.828,-0.215 1.312,-0.086 1.082,0.289 -0.402,0.653 -2.582,0.985 -2.582,0.391 z m 178.031,-0.813 c -0.234,-0.605 -0.25,-1.531 -0.035,-2.062 0.211,-0.527 0.41,-0.227 0.445,0.672 0.032,0.898 0.649,1.785 1.371,1.976 1.231,0.321 1.231,0.348 -0.023,0.43 -0.734,0.047 -1.527,-0.41 -1.758,-1.016 z M 8.82,309.969 c 0.934,-0.18 2.285,-0.172 3,0.015 0.719,0.188 -0.047,0.336 -1.695,0.328 -1.648,-0.011 -2.238,-0.164 -1.305,-0.343 z m 255.75,0 c 0.934,-0.18 2.285,-0.172 3,0.015 0.719,0.188 -0.047,0.336 -1.695,0.328 -1.648,-0.011 -2.238,-0.164 -1.305,-0.343 z m 81.727,-1.66 c -0.324,-1.247 -0.227,-1.539 0.328,-0.981 0.437,0.434 0.645,1.234 0.465,1.774 -0.188,0.562 -0.528,0.222 -0.793,-0.793 z M 8.449,306.961 c 1.137,-0.172 2.824,-0.168 3.75,0.012 0.922,0.175 -0.011,0.32 -2.074,0.312 -2.063,-0.004 -2.816,-0.152 -1.676,-0.324 z m 255.739,0 c 1.132,-0.172 2.992,-0.172 4.124,0 1.133,0.172 0.208,0.312 -2.062,0.312 -2.27,0 -3.195,-0.14 -2.062,-0.312 z M 72.328,271.125 c 0,-10.727 0.106,-15.008 0.234,-9.52 0.126,5.493 0.126,14.266 -0.003,19.5 -0.129,5.235 -0.231,0.747 -0.231,-9.98 z m 51.637,15.75 c 0.004,-2.063 0.152,-2.816 0.324,-1.676 0.172,1.137 0.168,2.824 -0.012,3.75 -0.175,0.922 -0.32,-0.011 -0.312,-2.074 z m 24.394,2.863 c 0.543,-0.218 1.188,-0.191 1.438,0.059 0.25,0.25 -0.195,0.426 -0.985,0.394 -0.874,-0.035 -1.05,-0.214 -0.453,-0.453 z m 45.356,-2.863 c 0.004,-2.063 0.152,-2.816 0.324,-1.676 0.172,1.137 0.168,2.824 -0.012,3.75 -0.175,0.922 -0.32,-0.011 -0.312,-2.074 z m 104.25,0 c 0.004,-2.063 0.152,-2.816 0.324,-1.676 0.172,1.137 0.168,2.824 -0.012,3.75 -0.175,0.922 -0.32,-0.011 -0.312,-2.074 z m -188.219,-8.25 c 0.004,-2.887 0.141,-3.977 0.301,-2.422 0.164,1.559 0.16,3.918 -0.004,5.25 -0.168,1.332 -0.301,0.059 -0.297,-2.828 z m 42.129,1.875 c 0.746,-0.824 1.527,-1.5 1.734,-1.5 0.203,0 -0.238,0.676 -0.984,1.5 -0.746,0.824 -1.527,1.5 -1.734,1.5 -0.203,0 0.238,-0.676 0.984,-1.5 z m 59.078,-5.02 c 0.727,-0.191 1.742,-0.179 2.25,0.028 0.508,0.207 -0.09,0.359 -1.328,0.347 -1.238,-0.015 -1.652,-0.183 -0.922,-0.375 z M 93.215,271.875 c 0.004,-2.063 0.152,-2.816 0.324,-1.676 0.172,1.137 0.168,2.824 -0.012,3.75 -0.175,0.922 -0.32,-0.011 -0.312,-2.074 z m 70.461,-1.125 c 0,-1.445 0.152,-2.035 0.34,-1.312 0.191,0.722 0.191,1.902 0,2.624 -0.188,0.723 -0.34,0.133 -0.34,-1.312 z m 50.683,-2.012 c 0.543,-0.218 1.188,-0.191 1.438,0.059 0.25,0.25 -0.195,0.426 -0.985,0.394 -0.874,-0.035 -1.05,-0.214 -0.453,-0.453 z m 3.141,-0.519 c 0,-0.157 0.59,-0.75 1.312,-1.313 1.192,-0.933 1.215,-0.91 0.282,0.282 -0.977,1.25 -1.594,1.648 -1.594,1.031 z m -107.77,-5.344 c 0.008,-2.477 0.145,-3.398 0.313,-2.051 0.168,1.352 0.164,3.375 -0.008,4.5 -0.172,1.129 -0.308,0.028 -0.305,-2.449 z m 110.079,0.687 c 0.035,-0.874 0.214,-1.05 0.453,-0.453 0.218,0.543 0.191,1.188 -0.059,1.438 -0.25,0.25 -0.426,-0.195 -0.394,-0.985 z m 8.308,-0.312 c 0,-1.031 0.172,-1.453 0.379,-0.938 0.207,0.516 0.207,1.36 0,1.876 -0.207,0.515 -0.379,0.093 -0.379,-0.938 z m -76.312,-1.688 -1.43,-1.687 1.687,1.43 c 1.586,1.34 2.028,1.945 1.43,1.945 -0.144,0 -0.902,-0.758 -1.687,-1.688 z M 250.5,259.5 c 0,-0.414 0.336,-0.75 0.75,-0.75 0.414,0 0.75,0.336 0.75,0.75 0,0.414 -0.336,0.75 -0.75,0.75 -0.414,0 -0.75,-0.336 -0.75,-0.75 z m -126.535,-4.125 c 0.004,-2.063 0.152,-2.816 0.324,-1.676 0.172,1.137 0.168,2.824 -0.012,3.75 -0.175,0.922 -0.32,-0.011 -0.312,-2.074 z m 69.75,0 c 0.004,-2.063 0.152,-2.816 0.324,-1.676 0.172,1.137 0.168,2.824 -0.012,3.75 -0.175,0.922 -0.32,-0.011 -0.312,-2.074 z m -46.903,-3.121 c 0.516,-0.207 1.36,-0.207 1.876,0 0.515,0.207 0.093,0.379 -0.938,0.379 -1.031,0 -1.453,-0.172 -0.938,-0.379 z m 69.391,-0.024 c 0.727,-0.191 1.742,-0.179 2.25,0.028 0.508,0.207 -0.09,0.359 -1.328,0.347 -1.238,-0.015 -1.652,-0.183 -0.922,-0.375 z m -102.765,-7.519 c 1.132,-0.172 2.992,-0.172 4.124,0 1.133,0.172 0.208,0.312 -2.062,0.312 -2.27,0 -3.195,-0.14 -2.062,-0.312 z m 117,0 c 1.132,-0.172 2.992,-0.172 4.124,0 1.133,0.172 0.208,0.312 -2.062,0.312 -2.27,0 -3.195,-0.14 -2.062,-0.312 z m 72.75,0 c 1.132,-0.172 2.992,-0.172 4.124,0 1.133,0.172 0.208,0.312 -2.062,0.312 -2.27,0 -3.195,-0.14 -2.062,-0.312 z M 53.578,225.375 c 0,-10.727 0.106,-15.008 0.234,-9.52 0.126,5.493 0.126,14.266 -0.003,19.5 -0.129,5.235 -0.231,0.747 -0.231,-9.98 z m 9.75,0 c 0,-10.727 0.106,-15.008 0.234,-9.52 0.126,5.493 0.126,14.266 -0.003,19.5 -0.129,5.235 -0.231,0.747 -0.231,-9.98 z m 7.473,8.25 c 0,-6.187 0.117,-8.617 0.258,-5.402 0.14,3.215 0.14,8.277 -0.004,11.25 -0.141,2.972 -0.254,0.339 -0.254,-5.848 z m 72.769,-4.875 c 0,-8.867 0.106,-12.496 0.239,-8.062 0.132,4.433 0.132,11.691 0,16.124 -0.133,4.434 -0.239,0.805 -0.239,-8.062 z m 8.25,0 c 0,-8.867 0.106,-12.496 0.239,-8.062 0.132,4.433 0.132,11.691 0,16.124 -0.133,4.434 -0.239,0.805 -0.239,-8.062 z m 40.5,0 c 0,-8.867 0.106,-12.496 0.239,-8.062 0.132,4.433 0.132,11.691 0,16.124 -0.133,4.434 -0.239,0.805 -0.239,-8.062 z m 8.25,0 c 0,-8.867 0.106,-12.496 0.239,-8.062 0.132,4.433 0.132,11.691 0,16.124 -0.133,4.434 -0.239,0.805 -0.239,-8.062 z m 63.75,0 c 0,-8.867 0.106,-12.496 0.239,-8.062 0.132,4.433 0.132,11.691 0,16.124 -0.133,4.434 -0.239,0.805 -0.239,-8.062 z m 8.25,0 c 0,-8.867 0.106,-12.496 0.239,-8.062 0.132,4.433 0.132,11.691 0,16.124 -0.133,4.434 -0.239,0.805 -0.239,-8.062 z M 126,241.969 c 0,-0.157 0.59,-0.75 1.312,-1.313 1.192,-0.933 1.215,-0.91 0.282,0.282 -0.977,1.25 -1.594,1.648 -1.594,1.031 z m 94.055,-1.407 -1.43,-1.687 1.687,1.43 c 0.93,0.785 1.688,1.543 1.688,1.687 0,0.598 -0.605,0.156 -1.945,-1.43 z m 24.07,0.188 c 0.746,-0.824 1.527,-1.5 1.734,-1.5 0.203,0 -0.238,0.676 -0.984,1.5 -0.746,0.824 -1.527,1.5 -1.734,1.5 -0.203,0 0.238,-0.676 0.984,-1.5 z m 47.531,-0.562 c -0.933,-1.192 -0.91,-1.215 0.282,-0.282 1.25,0.977 1.648,1.594 1.031,1.594 -0.157,0 -0.75,-0.59 -1.313,-1.312 z M 318.375,240 c 0.746,-0.824 1.527,-1.5 1.734,-1.5 0.203,0 -0.238,0.676 -0.984,1.5 -0.746,0.824 -1.527,1.5 -1.734,1.5 -0.203,0 0.238,-0.676 0.984,-1.5 z M 114.57,237.969 c 0.934,-0.18 2.285,-0.172 3,0.015 0.719,0.188 -0.047,0.336 -1.695,0.328 -1.648,-0.011 -2.238,-0.164 -1.305,-0.343 z m 116.618,0.015 c 0.722,-0.191 1.902,-0.191 2.624,0 0.723,0.188 0.133,0.34 -1.312,0.34 -1.445,0 -2.035,-0.152 -1.312,-0.34 z m 73.515,-0.004 c 0.727,-0.191 1.742,-0.179 2.25,0.028 0.508,0.207 -0.09,0.359 -1.328,0.347 -1.238,-0.015 -1.652,-0.183 -0.922,-0.375 z m -69.141,-0.425 c 0.172,-0.11 1.157,-0.867 2.188,-1.688 l 1.875,-1.492 -1.43,1.687 c -0.785,0.93 -1.769,1.688 -2.187,1.688 -0.418,0 -0.617,-0.09 -0.446,-0.195 z m 74.938,-0.836 c 0,-0.157 0.59,-0.75 1.312,-1.313 1.192,-0.933 1.215,-0.91 0.282,0.282 -0.977,1.25 -1.594,1.648 -1.594,1.031 z m -188.941,-2.407 c 0.035,-0.874 0.214,-1.05 0.453,-0.453 0.218,0.543 0.191,1.188 -0.059,1.438 -0.25,0.25 -0.426,-0.195 -0.394,-0.985 z m 126,0 c 0.035,-0.874 0.214,-1.05 0.453,-0.453 0.218,0.543 0.191,1.188 -0.059,1.438 -0.25,0.25 -0.426,-0.195 -0.394,-0.985 z M 90.312,220.5 c 0,-8.043 0.114,-11.336 0.247,-7.312 0.136,4.023 0.136,10.601 0,14.624 -0.133,4.024 -0.247,0.731 -0.247,-7.312 z m 29.594,10.688 c -0.933,-1.192 -0.91,-1.215 0.282,-0.282 1.25,0.977 1.648,1.594 1.031,1.594 -0.157,0 -0.75,-0.59 -1.313,-1.312 z m 167.403,0.124 c 0.035,-0.874 0.214,-1.05 0.453,-0.453 0.218,0.543 0.191,1.188 -0.059,1.438 -0.25,0.25 -0.426,-0.195 -0.394,-0.985 z m 27,-1.5 c 0.035,-0.874 0.214,-1.05 0.453,-0.453 0.218,0.543 0.191,1.188 -0.059,1.438 -0.25,0.25 -0.426,-0.195 -0.394,-0.985 z m -18.692,-1.062 c 0,-1.031 0.172,-1.453 0.379,-0.938 0.207,0.516 0.207,1.36 0,1.876 -0.207,0.515 -0.379,0.093 -0.379,-0.938 z m 27.848,-3.375 c 0.004,-2.063 0.152,-2.816 0.324,-1.676 0.172,1.137 0.168,2.824 -0.012,3.75 -0.175,0.922 -0.32,-0.011 -0.312,-2.074 z m -215.524,-1.687 -1.816,-2.063 2.063,1.816 c 1.925,1.704 2.406,2.309 1.816,2.309 -0.133,0 -1.063,-0.93 -2.063,-2.062 z m 187.618,-2.126 c 0.035,-0.874 0.214,-1.05 0.453,-0.453 0.218,0.543 0.191,1.188 -0.059,1.438 -0.25,0.25 -0.426,-0.195 -0.394,-0.985 z m -181.653,-3.124 c -0.933,-1.192 -0.91,-1.215 0.282,-0.282 0.722,0.563 1.312,1.156 1.312,1.313 0,0.617 -0.617,0.219 -1.594,-1.031 z m -8.718,-2.063 c 0.011,-1.648 0.164,-2.238 0.343,-1.305 0.18,0.934 0.172,2.285 -0.015,3 -0.188,0.719 -0.336,-0.047 -0.328,-1.695 z M 298.875,214.5 c 0.746,-0.824 1.527,-1.5 1.734,-1.5 0.203,0 -0.238,0.676 -0.984,1.5 -0.746,0.824 -1.527,1.5 -1.734,1.5 -0.203,0 0.238,-0.676 0.984,-1.5 z m -165.91,-4.875 c 0.004,-2.063 0.152,-2.816 0.324,-1.676 0.172,1.137 0.168,2.824 -0.012,3.75 -0.175,0.922 -0.32,-0.011 -0.312,-2.074 z m 29.25,0 c 0.004,-2.063 0.152,-2.816 0.324,-1.676 0.172,1.137 0.168,2.824 -0.012,3.75 -0.175,0.922 -0.32,-0.011 -0.312,-2.074 z m 48.75,0 c 0.004,-2.063 0.152,-2.816 0.324,-1.676 0.172,1.137 0.168,2.824 -0.012,3.75 -0.175,0.922 -0.32,-0.011 -0.312,-2.074 z m 72,0 c 0.004,-2.063 0.152,-2.816 0.324,-1.676 0.172,1.137 0.168,2.824 -0.012,3.75 -0.175,0.922 -0.32,-0.011 -0.312,-2.074 z m 8.785,0.75 c 0.969,-1.031 1.93,-1.875 2.137,-1.875 0.207,0 -0.418,0.844 -1.387,1.875 -0.969,1.031 -1.93,1.875 -2.137,1.875 -0.207,0 0.418,-0.844 1.387,-1.875 z M 108,208.875 c 0.969,-1.031 1.93,-1.875 2.137,-1.875 0.207,0 -0.418,0.844 -1.387,1.875 -0.969,1.031 -1.93,1.875 -2.137,1.875 -0.207,0 0.418,-0.844 1.387,-1.875 z m 5.859,-3.137 c 0.543,-0.218 1.188,-0.191 1.438,0.059 0.25,0.25 -0.195,0.426 -0.985,0.394 -0.874,-0.035 -1.05,-0.214 -0.453,-0.453 z m 7.5,0 c 0.543,-0.218 1.188,-0.191 1.438,0.059 0.25,0.25 -0.195,0.426 -0.985,0.394 -0.874,-0.035 -1.05,-0.214 -0.453,-0.453 z m 179.25,0 c 0.543,-0.218 1.188,-0.191 1.438,0.059 0.25,0.25 -0.195,0.426 -0.985,0.394 -0.874,-0.035 -1.05,-0.214 -0.453,-0.453 z m 9,0 c 0.543,-0.218 1.188,-0.191 1.438,0.059 0.25,0.25 -0.195,0.426 -0.985,0.394 -0.874,-0.035 -1.05,-0.214 -0.453,-0.453 z M 137.453,42.98 c 0.727,-0.191 1.742,-0.179 2.25,0.028 0.508,0.207 -0.09,0.359 -1.328,0.347 -1.238,-0.015 -1.652,-0.183 -0.922,-0.375 z m 22.485,-21.605 c 0.011,-1.648 0.164,-2.238 0.343,-1.305 0.18,0.934 0.172,2.285 -0.015,3 -0.188,0.719 -0.336,-0.047 -0.328,-1.695 z M 122.25,7.219 c 0,-0.157 0.59,-0.75 1.312,-1.313 1.192,-0.933 1.215,-0.91 0.282,0.282 -0.977,1.25 -1.594,1.648 -1.594,1.031 z"
         style="fill:#000000;fill-opacity:1;fill-rule:nonzero;stroke:none"
         id="path7478" />
      <path
         d="m 3,336.125 c -1.133,-0.34 -1.969,-1.219 -2.113,-2.219 -0.219,-1.504 -0.059,-1.59 1.734,-0.906 2.563,0.973 8.328,0.965 10.16,-0.016 2.223,-1.191 3.082,-3.339 2.235,-5.574 -0.539,-1.414 -2.258,-2.629 -6.403,-4.515 -4.812,-2.196 -5.836,-2.993 -6.804,-5.317 -2.528,-6.043 0.781,-10.086 8.23,-10.066 6.305,0.011 7.879,0.511 7.399,2.343 -0.211,0.821 -0.817,1.313 -1.36,1.106 -2.293,-0.879 -6.457,-1.34 -8.187,-0.906 -1.032,0.257 -2.391,1.261 -3.028,2.23 -2.035,3.11 -0.453,5.285 6.172,8.504 6.934,3.367 8.406,5.449 7.047,9.977 -0.469,1.57 -1.715,3.39 -2.809,4.105 -2.156,1.414 -9.308,2.145 -12.273,1.254 z m 25.02,-0.117 C 24.695,334.668 24,332.488 24,323.457 24,315.5 24.09,315 25.5,315 c 1.402,0 1.5,0.5 1.5,7.793 0,9.996 1.008,11.519 7.324,11.074 3.149,-0.219 4.668,-4.101 4.672,-11.929 C 39,315.5 39.109,315 40.5,315 c 1.43,0 1.5,0.5 1.5,10.5 0,10 -0.07,10.5 -1.5,10.5 -0.824,0 -1.5,-0.469 -1.5,-1.043 0,-0.824 -0.586,-0.746 -2.785,0.375 -2.965,1.512 -5.59,1.727 -8.195,0.676 z m 45.3,-0.391 C 70.359,333.949 69,330.77 69,325.5 c 0,-5.73 1.492,-8.762 5.047,-10.246 3.027,-1.262 7.031,-0.844 8.469,0.891 1.738,2.093 2.234,1.089 2.234,-4.52 0,-5.125 0.133,-5.625 1.5,-5.625 1.449,0 1.5,0.5 1.5,15 0,14.5 -0.051,15 -1.5,15 -0.832,0 -1.5,-0.5 -1.5,-1.125 0,-1.441 -0.676,-1.426 -2.32,0.063 -1.887,1.71 -6.645,2.062 -9.11,0.679 z m 8.696,-2.437 c 0.961,-0.547 2.734,-5.149 2.73,-7.094 -0.004,-0.941 -0.363,-3.004 -0.801,-4.582 -1.422,-5.125 -7.703,-6.223 -10.746,-1.883 -1.605,2.297 -1.605,9.465 0.008,11.766 1.918,2.742 5.762,3.523 8.809,1.793 z m 17.359,2.519 c -4.313,-1.906 -5.25,-3.734 -5.25,-10.261 0,-5.672 0.098,-6.008 2.453,-8.36 2.098,-2.101 2.977,-2.453 6.11,-2.453 2.593,0 4.144,0.434 5.335,1.5 2.004,1.785 3.727,5.59 3.727,8.227 v 1.898 h -7.5 c -8.262,0 -8.582,0.227 -6.363,4.527 1.336,2.582 3.539,3.289 8.687,2.797 3.114,-0.301 3.707,-0.164 3.52,0.813 -0.426,2.207 -6.895,3 -10.719,1.312 z M 108,322.207 c 0,-4.961 -6.223,-6.969 -9.562,-3.086 -0.93,1.078 -1.688,2.617 -1.688,3.422 0,1.312 0.555,1.457 5.625,1.457 5.43,0 5.625,-0.062 5.625,-1.793 z m 93.375,13.719 c -3.668,-2.11 -4.437,-5.875 -1.867,-9.141 1.515,-1.926 2.566,-2.285 9.18,-3.156 3.054,-0.402 3.562,-0.711 3.562,-2.156 0,-3.977 -4.043,-5.543 -9.188,-3.555 -1.812,0.699 -2.062,0.621 -2.062,-0.656 0,-1.809 5.051,-3.356 8.711,-2.668 4.539,0.851 5.539,3.172 5.539,12.883 0,8.656 -0.539,10.121 -2.66,7.222 -0.902,-1.234 -1.035,-1.23 -2.465,0.063 -1.855,1.679 -6.723,2.328 -8.75,1.164 z m 9.187,-4.168 c 0.95,-1.035 1.688,-2.805 1.688,-4.051 0,-2.004 -0.23,-2.207 -2.512,-2.207 -5.617,0 -9.394,2.754 -8.34,6.078 1.04,3.274 6.239,3.375 9.164,0.18 z m 12.376,4.5 c -1.047,-0.223 -1.688,-0.914 -1.688,-1.824 0,-1.45 1.148,-1.5 5.176,-0.227 0.578,0.184 2.152,-0.027 3.496,-0.473 4.219,-1.39 4.168,-4.332 -0.106,-6.3 -1.41,-0.653 -3.699,-1.707 -5.086,-2.344 -3.003,-1.383 -4.472,-4.102 -3.542,-6.555 1.113,-2.922 2.972,-3.887 7.476,-3.875 5.195,0.012 6.965,0.633 6.352,2.227 -0.348,0.906 -1.02,1.066 -2.797,0.672 -5.387,-1.192 -9.512,0.293 -8.457,3.046 0.258,0.668 2.414,2.075 4.793,3.122 5.871,2.585 6.945,3.687 6.945,7.121 0,2.25 -0.414,3.14 -1.918,4.125 -1.941,1.273 -7.559,1.953 -10.644,1.285 z m 37.246,-0.18 c -5.86,-1.914 -8.934,-6.754 -8.934,-14.07 0,-9.332 5.258,-14.508 14.734,-14.508 5.711,0 8.672,0.973 8.032,2.641 -0.356,0.925 -0.973,1.054 -2.797,0.586 -4.348,-1.118 -9.824,-0.61 -12.27,1.132 -4.402,3.133 -5.894,10.563 -3.277,16.325 1.832,4.035 5.301,5.722 11.144,5.418 l 4.309,-0.227 0.445,-9.375 h -3.035 c -2.199,0 -3.035,-0.309 -3.035,-1.125 0,-0.875 1,-1.125 4.5,-1.125 h 4.5 v 6.668 c 0,5.394 -0.227,6.758 -1.188,7.129 -2.128,0.816 -11.14,1.183 -13.128,0.531 z m 25.769,-0.441 c -3.308,-1.438 -5.445,-5.172 -5.449,-9.528 -0.008,-6.535 2.707,-10.675 7.531,-11.488 5.645,-0.957 10.465,3.328 10.465,9.305 v 2.324 H 291 c -6.305,0 -7.5,0.188 -7.5,1.176 0,1.562 1.461,4.23 2.934,5.363 1.464,1.121 7.886,1.242 9.867,0.184 1.207,-0.645 1.449,-0.528 1.449,0.715 0,2.703 -7.297,3.906 -11.797,1.949 z m 8.926,-13.887 c -0.531,-4.039 -5.801,-6.199 -8.883,-3.641 -1.437,1.192 -2.652,4.278 -2.062,5.235 0.242,0.394 2.863,0.621 5.816,0.5 5.25,-0.215 5.371,-0.262 5.129,-2.094 z m 28.371,14.504 c -3.328,-1.332 -4.723,-5.098 -3.285,-8.844 0.629,-1.64 4.215,-3.41 6.902,-3.41 1.207,0 3.274,-0.215 4.594,-0.48 2.137,-0.426 2.348,-0.692 1.918,-2.438 -0.262,-1.074 -0.945,-2.434 -1.516,-3.016 -1.168,-1.195 -5.644,-1.254 -7.797,-0.101 -1.089,0.582 -1.523,0.476 -1.882,-0.461 -0.61,-1.582 -0.391,-1.754 3.332,-2.59 4.066,-0.914 7.988,-0.144 9.379,1.84 1.625,2.32 1.609,19.246 -0.02,19.246 -0.656,0 -1.125,-0.68 -1.125,-1.629 v -1.633 l -1.801,1.692 c -1.804,1.695 -6.543,2.691 -8.699,1.824 z m 5.902,-2.582 c 2.75,-0.961 3.848,-2.633 3.848,-5.871 0,-2.012 -0.262,-2.301 -2.066,-2.301 -2.914,0 -7.09,1.297 -7.809,2.422 -1.113,1.758 -0.637,4.234 1.043,5.41 1.984,1.391 1.969,1.391 4.984,0.34 z m 25.036,2.305 c -0.93,-0.372 -1.688,-1.223 -1.688,-1.887 0,-0.988 0.449,-1.098 2.438,-0.61 3.316,0.813 7.179,0.563 8.523,-0.55 2.199,-1.828 0.871,-3.953 -3.934,-6.305 -6.429,-3.145 -7.144,-3.879 -6.879,-7.063 0.192,-2.281 0.664,-2.902 3.106,-4.093 2.371,-1.157 3.57,-1.289 6.75,-0.75 2.648,0.449 3.871,1.011 3.871,1.781 0,0.75 -0.625,1.062 -1.875,0.941 -5.672,-0.562 -7.785,-0.343 -8.695,0.903 -1.547,2.117 -0.407,3.398 5.351,6.019 4.758,2.168 5.508,2.785 5.973,4.899 0.629,2.863 -1.317,6.027 -4.195,6.832 -2.598,0.726 -6.786,0.672 -8.746,-0.117 z M 49.5,321 c 0,-12.832 0.164,-15 1.125,-15 0.961,0 1.125,2.168 1.125,15 0,12.832 -0.164,15 -1.125,15 -0.961,0 -1.125,-2.168 -1.125,-15 z m 78.75,0.75 V 307.5 h 5.059 l 4.41,11.613 c 2.422,6.387 4.605,11.617 4.851,11.625 0.242,0.008 2.442,-5.136 4.883,-11.426 4.383,-11.281 4.477,-11.441 6.871,-11.671 l 2.426,-0.235 v 14.297 c 0,13.797 -0.051,14.297 -1.5,14.297 -1.438,0 -1.5,-0.512 -1.539,-12.562 l -0.039,-12.563 -2.106,5.25 c -1.156,2.887 -3.367,8.539 -4.91,12.563 -2.129,5.539 -3.14,7.312 -4.176,7.312 -1.035,0 -2.042,-1.77 -4.164,-7.312 -1.539,-4.024 -3.742,-9.676 -4.894,-12.563 l -2.094,-5.25 -0.039,12.563 C 131.25,335.488 131.188,336 129.75,336 c -1.449,0 -1.5,-0.5 -1.5,-14.25 z m 36,3.75 c 0,-10 0.07,-10.5 1.5,-10.5 1.43,0 1.5,0.5 1.5,10.5 0,10 -0.07,10.5 -1.5,10.5 -1.43,0 -1.5,-0.5 -1.5,-10.5 z m 10.5,0 c 0,-8.93 0.172,-10.5 1.148,-10.5 0.633,0 1.325,0.457 1.54,1.012 0.308,0.812 0.972,0.722 3.332,-0.442 2.175,-1.078 3.71,-1.328 5.894,-0.961 5,0.848 5.676,2.258 5.961,12.469 0.242,8.621 0.199,8.922 -1.313,8.922 -1.48,0 -1.562,-0.398 -1.562,-7.707 0,-9.512 -0.77,-11.043 -5.551,-11.043 -5.121,0 -6.023,1.559 -6.328,10.953 -0.234,7.082 -0.387,7.797 -1.687,7.797 -1.344,0 -1.434,-0.668 -1.434,-10.5 z m 129.75,0 c 0,-8.832 0.18,-10.5 1.125,-10.5 0.625,0 1.125,0.668 1.125,1.5 0,1.898 0.613,1.891 2.656,-0.031 0.895,-0.84 2.895,-1.735 4.438,-1.985 2.472,-0.402 2.777,-0.285 2.539,0.969 -0.188,0.981 -1.02,1.496 -2.672,1.656 -1.566,0.153 -3.066,1.02 -4.309,2.493 -1.742,2.074 -1.902,2.859 -1.902,9.332 0,6.566 -0.105,7.066 -1.5,7.066 -1.43,0 -1.5,-0.5 -1.5,-10.5 z m 39,0 c 0,-10 0.07,-10.5 1.5,-10.5 1.43,0 1.5,0.5 1.5,10.5 0,10 -0.07,10.5 -1.5,10.5 -1.43,0 -1.5,-0.5 -1.5,-10.5 z M 164.379,308.871 c 0.164,-1.164 0.746,-1.746 1.746,-1.746 2.234,0 2.012,2.926 -0.246,3.246 -1.457,0.207 -1.707,-0.043 -1.5,-1.5 z M 343.5,308.57 c 0,-2.461 2.508,-2.242 2.863,0.25 0.184,1.278 -0.133,1.68 -1.312,1.68 -1.168,0 -1.551,-0.477 -1.551,-1.93 z M 72.75,271.125 V 252 H 94.5 v 6.75 H 80.25 v 9.75 H 93 v 6.75 H 80.25 v 15 h -7.5 z m 29.25,0 V 252 h 21.75 v 6.75 H 109.5 V 267 H 123 v 6.75 h -13.5 v 9.75 h 14.25 v 6.75 H 102 Z m 30,-0.109 v -19.235 l 9.348,0.403 c 7.531,0.328 10.007,0.726 12.75,2.054 6.789,3.285 9.89,9.524 9.238,18.582 -0.449,6.282 -2.609,10.715 -6.645,13.637 -3.808,2.758 -8.613,3.793 -17.601,3.793 H 132 Z m 18.609,10.964 c 3.11,-1.894 4.641,-5.48 4.641,-10.855 0,-8.285 -3.648,-12.367 -11.062,-12.371 l -3.938,-0.004 v 24.75 l 3.938,-0.004 c 2.624,0 4.765,-0.508 6.421,-1.516 z M 171.75,271.125 V 252 h 21.75 v 6.75 H 180 V 267 h 12.75 v 6.75 H 180 v 9.75 h 13.5 v 6.75 h -21.75 z m 30,-0.109 v -19.239 l 8.918,0.414 c 13.055,0.602 17.324,3.289 17.328,10.922 0.004,3.996 -0.891,5.871 -4.203,8.778 l -2.578,2.265 5.265,7.766 c 2.899,4.269 5.27,7.89 5.27,8.047 0,0.156 -1.859,0.281 -4.137,0.281 h -4.133 l -3.671,-5.812 c -5.414,-8.575 -5.946,-9.188 -7.969,-9.188 -1.832,0 -1.84,0.039 -1.84,7.5 v 7.5 h -8.25 z m 16.883,-3.348 c 3.746,-3.828 0.765,-8.918 -5.223,-8.918 H 210 v 10.691 l 3.805,-0.367 c 2.093,-0.199 4.265,-0.832 4.828,-1.406 z m 14.617,22.031 c 0,-0.301 2.938,-8.906 6.527,-19.125 l 6.524,-18.574 4.914,0.004 4.91,0.004 6.375,18.137 c 3.508,9.976 6.484,18.582 6.617,19.125 0.18,0.718 -0.867,0.98 -3.933,0.98 h -4.176 l -1.254,-4.5 -1.25,-4.5 h -14.555 l -1.265,4.5 -1.262,4.5 h -4.086 c -2.246,0 -4.086,-0.246 -4.086,-0.551 z m 21.301,-21.011 c -1.012,-3.196 -2.039,-6.743 -2.285,-7.876 -0.25,-1.132 -0.68,-2.062 -0.957,-2.062 -0.278,0 -1.543,3.543 -2.817,7.875 l -2.312,7.875 h 10.203 z m 19.949,2.437 V 252 h 8.25 v 31.5 h 15 v 6.75 H 274.5 Z M 45.75,225.375 V 206.25 h 7.5 v 38.25 h -7.5 z m 18,0 V 206.25 l 10.125,0.031 8.25,14.328 8.25,14.325 0.203,-14.344 0.203,-14.34 H 97.5 V 244.5 H 87.332 l -8.23,-14.359 -8.227,-14.36 -0.406,28.719 H 63.75 Z m 43.688,18.191 C 105.121,242.82 105,242.602 105,239.062 c 0,-3.253 0.164,-3.652 1.312,-3.175 6.18,2.566 10.282,3.109 13.262,1.75 4.574,-2.086 3.016,-5.692 -3.98,-9.215 -2.801,-1.41 -6.164,-3.781 -7.469,-5.27 -2.043,-2.328 -2.375,-3.273 -2.375,-6.777 0,-3.461 0.34,-4.461 2.266,-6.652 3.711,-4.227 9.601,-5.055 18.172,-2.555 3.074,0.894 3.382,1.805 1.71,5.039 -1.082,2.09 -1.16,2.113 -3.937,1.121 -6.102,-2.176 -10.711,-0.863 -10.711,3.051 0,1.957 2.047,3.637 7.707,6.324 1.969,0.934 4.57,2.692 5.781,3.902 5.067,5.067 3.219,14.067 -3.465,16.86 -2.867,1.199 -12.226,1.258 -15.835,0.101 z M 144,228.75 V 213 h -10.5 v -6.75 H 162 V 213 h -10.5 v 31.5 H 144 Z m 24,-3.375 V 206.25 h 8.25 V 244.5 H 168 Z m 24.75,3.375 V 213 h -10.5 v -6.75 h 28.5 V 213 h -10.5 v 31.5 h -7.5 z m 31.875,14.688 c -2.953,-1.321 -5.961,-4.688 -7.023,-7.864 -0.508,-1.523 -0.852,-7.937 -0.852,-15.937 V 206.25 H 225 v 13.832 c 0,13.543 0.039,13.879 1.809,15.938 1.55,1.8 2.371,2.105 5.691,2.105 3.32,0 4.141,-0.305 5.691,-2.105 1.77,-2.059 1.809,-2.395 1.809,-15.938 V 206.25 h 8.25 l -0.031,13.312 c -0.043,17.305 -1.082,20.422 -7.844,23.528 -3.605,1.656 -12.387,1.848 -15.75,0.348 z M 264.75,228.75 V 213 h -10.5 v -6.75 h 28.5 V 213 h -10.5 v 31.5 h -7.5 z m 31.844,14.34 c -5.899,-2.68 -9.344,-9.348 -9.344,-18.09 0,-10.23 4.762,-17.012 13.172,-18.758 8.625,-1.793 16.355,0.903 20.133,7.016 1.808,2.922 2.257,4.594 2.539,9.449 0.609,10.52 -2.453,17.324 -9.164,20.375 -4.164,1.891 -13.184,1.895 -17.336,0.008 z m 12.761,-5.656 c 3.661,-1.532 5.645,-5.77 5.645,-12.055 0,-8.512 -3.277,-13.141 -9.289,-13.117 -4.371,0.015 -6.586,1.371 -8.523,5.211 -3.02,5.988 -1.743,16.343 2.343,19.023 3.231,2.113 6.301,2.406 9.824,0.938 z M 117.059,23.562 c 0.035,-0.874 0.214,-1.05 0.453,-0.453 0.218,0.543 0.191,1.188 -0.059,1.438 -0.25,0.25 -0.426,-0.195 -0.394,-0.985 z m 0.058,-4.062 c 0,-1.031 0.172,-1.453 0.379,-0.938 0.207,0.516 0.207,1.36 0,1.876 -0.207,0.515 -0.379,0.093 -0.379,-0.938 z M 140.859,0.238 c 0.543,-0.218 1.188,-0.191 1.438,0.059 0.25,0.25 -0.195,0.426 -0.985,0.394 -0.874,-0.035 -1.05,-0.214 -0.453,-0.453 z"
         style="fill:#000000;fill-opacity:1;fill-rule:nonzero;stroke:none"
         id="path7480" />
      <path
         d="m 157.82,159.75 c 0,-9.281 0.11,-13.078 0.239,-8.438 0.132,4.641 0.132,12.235 0,16.876 -0.129,4.64 -0.239,0.843 -0.239,-8.438 z m -27.132,-26.809 c 4.433,-0.132 11.691,-0.132 16.124,0 4.434,0.133 0.805,0.239 -8.062,0.239 -8.867,0 -12.496,-0.106 -8.062,-0.239 z m 45.707,0 c 4.414,-0.132 11.839,-0.132 16.5,0 4.664,0.129 1.054,0.239 -8.02,0.239 -9.074,0 -12.891,-0.106 -8.48,-0.239 z m 46.543,0 c 4.433,-0.132 11.691,-0.132 16.124,0 4.434,0.133 0.805,0.239 -8.062,0.239 -8.867,0 -12.496,-0.106 -8.062,-0.239 z M 157.82,114 c 0,-9.281 0.11,-13.078 0.239,-8.438 0.132,4.641 0.132,12.235 0,16.876 -0.129,4.64 -0.239,0.843 -0.239,-8.438 z m 92.25,-0.375 c 0,-9.074 0.11,-12.684 0.239,-8.02 0.132,4.661 0.132,12.086 0,16.5 -0.133,4.411 -0.239,0.594 -0.239,-8.48 z M 157.82,67.5 c 0,-9.281 0.11,-13.078 0.239,-8.438 0.132,4.641 0.132,12.235 0,16.876 -0.129,4.64 -0.239,0.843 -0.239,-8.438 z m 18.575,-26.809 c 4.414,-0.132 11.839,-0.132 16.5,0 4.664,0.129 1.054,0.239 -8.02,0.239 -9.074,0 -12.891,-0.106 -8.48,-0.239 z m 45.75,0 c 4.414,-0.132 11.839,-0.132 16.5,0 4.664,0.129 1.054,0.239 -8.02,0.239 -9.074,0 -12.891,-0.106 -8.48,-0.239 z M 250.07,21.375 c 0,-9.074 0.11,-12.684 0.239,-8.02 0.132,4.661 0.132,12.086 0,16.5 -0.133,4.411 -0.239,0.594 -0.239,-8.48 z"
         style="fill:#9bcc99;fill-opacity:1;fill-rule:nonzero;stroke:none"
         id="path7482" />
      <path
         d="m 129.895,86.441 c 4.414,-0.132 11.839,-0.132 16.5,0 4.664,0.129 1.054,0.239 -8.02,0.239 -9.074,0 -12.891,-0.106 -8.48,-0.239 z m 46.5,0 c 4.414,-0.132 11.839,-0.132 16.5,0 4.664,0.129 1.054,0.239 -8.02,0.239 -9.074,0 -12.891,-0.106 -8.48,-0.239 z m -46.5,-38.25 c 4.414,-0.132 11.839,-0.132 16.5,0 4.664,0.129 1.054,0.239 -8.02,0.239 -9.074,0 -12.891,-0.106 -8.48,-0.239 z m 46.5,0 c 4.414,-0.132 11.839,-0.132 16.5,0 4.664,0.129 1.054,0.239 -8.02,0.239 -9.074,0 -12.891,-0.106 -8.48,-0.239 z"
         style="fill:#65b061;fill-opacity:1;fill-rule:nonzero;stroke:none"
         id="path7484" />
      <path
         d="m 121.082,178.184 c -1.367,-0.996 -1.457,-2.098 -1.457,-17.883 0,-13.153 0.223,-17.09 1.031,-18.059 0.899,-1.086 3.09,-1.242 17.485,-1.242 9.91,0 17.035,0.309 17.91,0.777 1.367,0.731 1.449,1.739 1.449,17.946 0,14.609 -0.176,17.347 -1.18,18.347 -1.664,1.664 -32.98,1.766 -35.238,0.114 z m 45.91,-0.305 c -1.078,-1.191 -1.242,-3.578 -1.242,-17.945 0,-14.071 0.18,-16.754 1.18,-17.754 1.761,-1.762 34.129,-1.762 35.89,0 1.004,1 1.18,3.695 1.18,17.882 0,15.231 -0.121,16.817 -1.371,17.946 -1.188,1.078 -3.57,1.242 -17.883,1.242 -15.047,0 -16.625,-0.121 -17.754,-1.371 z m -46.64,-46.938 c -1.008,-1.535 -1.153,-4.246 -0.957,-18.058 0.214,-15.078 0.335,-16.332 1.687,-17.321 2.258,-1.648 33.578,-1.546 35.238,0.118 1.004,1 1.18,3.726 1.18,18.222 0,12.258 -0.254,17.301 -0.898,17.95 -0.649,0.644 -5.7,0.898 -17.985,0.898 h -17.082 z m 46.578,0.629 c -1.004,-1 -1.18,-3.703 -1.18,-17.957 0,-16.488 0.027,-16.797 1.668,-17.945 2.465,-1.727 32.449,-1.727 34.914,0 1.641,1.148 1.668,1.457 1.668,17.945 0,14.254 -0.176,16.957 -1.18,17.957 -1.761,1.762 -34.129,1.762 -35.89,0 z m 45.738,-0.488 c -0.969,-1.379 -1.168,-4.394 -1.168,-17.625 0,-14.957 0.094,-16.051 1.5,-17.457 1.41,-1.41 2.5,-1.5 17.945,-1.5 13.953,0 16.625,0.18 17.625,1.18 1.004,1 1.18,3.726 1.18,18.222 0,12.258 -0.254,17.301 -0.898,17.95 -0.649,0.644 -5.692,0.898 -17.961,0.898 -16.774,0 -17.075,-0.027 -18.223,-1.668 z M 120.75,85.516 c -0.93,-0.586 -1.164,-3.477 -1.352,-16.707 -0.14,-9.731 0.075,-16.797 0.543,-18.032 l 0.77,-2.027 h 17.496 c 12.605,0 17.746,0.25 18.395,0.898 1.273,1.278 1.273,34.426 0,35.704 -1.11,1.105 -34.118,1.261 -35.852,0.164 z m 45.777,-0.715 c -1.039,-1.942 -1.039,-32.66 0,-34.602 0.735,-1.371 1.743,-1.449 18.348,-1.449 16.605,0 17.613,0.078 18.348,1.449 0.465,0.871 0.777,7.809 0.777,17.301 0,9.492 -0.312,16.43 -0.777,17.301 -0.735,1.371 -1.743,1.449 -18.348,1.449 -16.605,0 -17.613,-0.078 -18.348,-1.449 z M 166.93,39.32 c -1.004,-1 -1.18,-3.703 -1.18,-17.957 0,-16.488 0.027,-16.797 1.668,-17.945 2.465,-1.727 32.449,-1.727 34.914,0 1.641,1.148 1.668,1.457 1.668,17.945 0,14.254 -0.176,16.957 -1.18,17.957 -1.761,1.762 -34.129,1.762 -35.89,0 z m 45.738,-0.488 C 211.699,37.453 211.5,34.438 211.5,21.207 211.5,6.25 211.594,5.156 213,3.75 c 1.406,-1.406 2.5,-1.5 17.457,-1.5 13.231,0 16.246,0.199 17.625,1.168 1.641,1.148 1.668,1.449 1.668,18.223 0,12.269 -0.254,17.312 -0.898,17.961 -0.649,0.644 -5.692,0.898 -17.961,0.898 -16.774,0 -17.075,-0.027 -18.223,-1.668 z"
         style="fill:#35982f;fill-opacity:1;fill-rule:nonzero;stroke:none"
         id="path7486" />
      <path
         d="m 131.773,41.668 c -9.023,-3.219 -14.308,-10.977 -14.171,-20.789 0.164,-11.43 9.562,-20.512 21.097,-20.383 8.723,0.098 15.012,4.066 18.875,11.914 2.18,4.426 2.344,5.281 2.02,10.379 -0.422,6.516 -2.547,10.805 -7.426,14.981 -5.43,4.652 -13.801,6.25 -20.395,3.898 z"
         style="fill:#c80e1d;fill-opacity:1;fill-rule:nonzero;stroke:none"
         id="path7488" />
    </g>
  </g>
</svg>
