<?xml version="1.0" encoding="UTF-8" standalone="no"?>
<!-- Created with Inkscape (http://www.inkscape.org/) -->

<svg
   version="1.1"
   id="svg7618"
   width="500"
   height="260"
   viewBox="0 0 500 260"
   sodipodi:docname="oracle-ducarmo.pdf"
   xmlns:inkscape="http://www.inkscape.org/namespaces/inkscape"
   xmlns:sodipodi="http://sodipodi.sourceforge.net/DTD/sodipodi-0.dtd"
   xmlns="http://www.w3.org/2000/svg"
   xmlns:svg="http://www.w3.org/2000/svg">
  <defs
     id="defs7622" />
  <sodipodi:namedview
     id="namedview7620"
     pagecolor="#505050"
     bordercolor="#eeeeee"
     borderopacity="1"
     inkscape:showpageshadow="0"
     inkscape:pageopacity="0"
     inkscape:pagecheckerboard="0"
     inkscape:deskcolor="#505050"
     showgrid="false" />
  <g
     id="g7626"
     inkscape:groupmode="layer"
     inkscape:label="Page 1"
     transform="scale(1.3333333)">
    <g
       id="g7628"
       inkscape:export-filename="../f3b812d1/oracle.svg"
       inkscape:export-xdpi="96"
       inkscape:export-ydpi="96">
      <path
         d="M 0,97.5 V 0 H 375 V 195 H 0 Z m 73.699,19.82 c 1.906,-0.652 5.055,-2.578 6.992,-4.285 9.247,-8.14 9.539,-21.402 0.664,-30.281 C 75.758,77.16 72.992,76.5 55.125,76.5 c -16.934,0 -20.125,0.676 -25.5,5.406 -9.102,8.012 -9.668,21.387 -1.27,30.094 5.668,5.883 7.625,6.355 26.45,6.434 12.203,0.054 16.152,-0.18 18.894,-1.114 z m -36.574,-8.773 c -3.512,-1.965 -6.375,-6.945 -6.375,-11.086 0,-4.219 2.906,-8.965 6.719,-10.984 3.078,-1.629 4.086,-1.727 17.539,-1.727 12.711,0 14.601,0.164 17.316,1.488 8.91,4.352 9.379,17.508 0.801,22.309 -2.828,1.582 -3.863,1.68 -18,1.68 -14.137,0 -15.172,-0.098 -18,-1.68 z M 99.75,101.625 V 84.75 h 14.285 c 14.164,0 14.297,0.016 16.125,1.84 2.383,2.383 2.395,5.68 0.031,8.43 l -1.808,2.105 -12.539,0.375 -12.543,0.375 11.91,10.309 11.914,10.312 5.906,0.004 c 6.977,0 7.082,0.312 -2.551,-7.59 l -6.746,-5.535 3.571,-0.406 c 7.804,-0.895 12.328,-5.524 12.812,-13.121 0.246,-3.868 -0.004,-5.262 -1.383,-7.719 -1.898,-3.379 -4.414,-5.457 -8.16,-6.75 C 128.898,76.801 121.777,76.5 109.762,76.5 H 91.5 v 42 h 8.25 z m 52.691,12.937 c 1.422,-2.164 6.047,-9.433 10.282,-16.152 l 7.695,-12.219 5.148,8.469 5.145,8.465 -10.106,0.207 c -5.558,0.117 -10.105,0.418 -10.105,0.672 0,0.254 0.93,1.934 2.062,3.73 l 2.063,3.262 10.695,0.004 h 10.696 l 2.304,3.75 2.309,3.75 h 4.809 c 2.648,0 4.812,-0.156 4.812,-0.348 0,-0.191 -3.523,-5.843 -7.832,-12.562 -4.305,-6.719 -9.746,-15.254 -12.09,-18.965 -5.781,-9.164 -6.742,-10.125 -10.144,-10.125 -3.473,0 -4.02,0.668 -15.664,19.125 -4.688,7.426 -9.817,15.422 -11.395,17.77 -1.582,2.351 -2.875,4.46 -2.875,4.687 0,0.23 2.16,0.418 4.801,0.418 h 4.804 z m 91.196,0.137 c 1.301,-2.09 2.363,-3.945 2.363,-4.125 0,-0.179 -7.293,-0.324 -16.211,-0.324 -15.336,0 -16.367,-0.09 -19.16,-1.66 -9.246,-5.195 -8.109,-19.285 1.855,-23.043 1.188,-0.445 7.774,-0.805 15,-0.809 l 12.891,-0.015 2.437,-3.727 c 1.34,-2.051 2.438,-3.902 2.438,-4.113 0,-0.211 -7.074,-0.383 -15.723,-0.383 -18.832,0 -22.121,0.797 -27.777,6.73 -8.152,8.559 -8.012,20.606 0.34,28.958 5.644,5.644 7.789,6.183 24.859,6.253 l 14.328,0.059 z m 48.035,0.172 c 1.281,-1.996 2.328,-3.851 2.328,-4.125 0,-0.273 -8.27,-0.496 -18.375,-0.496 H 257.25 V 76.5 H 249 v 19.629 c 0,17.211 0.152,19.797 1.242,21 1.141,1.258 2.785,1.371 20.172,1.371 h 18.93 z m 48,0 c 1.281,-1.996 2.328,-3.851 2.328,-4.125 0,-0.273 -7.375,-0.496 -16.391,-0.496 -15.804,0 -16.476,-0.062 -18.918,-1.707 -1.39,-0.938 -3.32,-2.875 -4.289,-4.313 l -1.757,-2.605 16.902,-0.203 16.898,-0.199 2.278,-3.309 c 1.254,-1.82 2.277,-3.496 2.277,-3.723 0,-0.23 -8.629,-0.507 -19.176,-0.617 l -19.179,-0.199 1.742,-2.555 c 3.722,-5.472 4.386,-5.668 20.129,-5.929 l 14.16,-0.231 2.289,-3.715 c 1.258,-2.047 2.285,-3.883 2.285,-4.082 0,-0.199 -6.859,-0.363 -15.238,-0.363 -11.477,0 -16.192,0.281 -19.094,1.145 -15.512,4.605 -20.129,24.933 -8.043,35.433 5.496,4.777 7.992,5.332 24.109,5.379 l 14.36,0.043 z m 12.129,-29.398 c 1.828,-0.977 2.004,-6.059 0.269,-7.793 -2.797,-2.797 -7.82,-0.422 -7.82,3.695 0,3.93 3.906,6.047 7.551,4.098 z m -5.153,-1.621 c -1.089,-1.094 -1.183,-4.086 -0.148,-4.727 0.445,-0.277 0.75,0.617 0.75,2.207 0,2.551 1.047,3.656 1.676,1.77 0.187,-0.563 0.48,-0.422 0.789,0.375 0.582,1.519 -1.645,1.793 -3.067,0.375 z m 4.188,-1.086 c -0.191,-0.352 -0.129,-1.485 0.137,-2.516 0.468,-1.797 0.504,-1.809 0.914,-0.27 0.441,1.649 -0.422,3.938 -1.051,2.786 z"
         style="fill:#fefefe;fill-opacity:1;fill-rule:nonzero;stroke:none"
         id="path7630" />
      <path
         d="m 48.973,110.441 c 3.632,-0.136 9.367,-0.136 12.75,0 3.382,0.141 0.414,0.254 -6.598,0.25 -7.012,0 -9.781,-0.113 -6.152,-0.25 z m 174.339,0 c 4.227,-0.132 11.149,-0.132 15.376,0 4.226,0.133 0.769,0.243 -7.688,0.243 -8.457,0 -11.914,-0.11 -7.688,-0.243 z m 43.168,-0.003 c 5.286,-0.129 13.723,-0.129 18.75,0.003 5.032,0.129 0.708,0.235 -9.605,0.235 -10.313,0 -14.426,-0.11 -9.145,-0.238 z m 53.622,0.003 c 4.25,-0.136 11,-0.136 15,0 4,0.133 0.523,0.243 -7.727,0.243 -8.25,0 -11.523,-0.11 -7.273,-0.243 z"
         style="fill:#fee1db;fill-opacity:1;fill-rule:nonzero;stroke:none"
         id="path7632" />
      <path
         d="m 48.973,84.191 c 3.632,-0.136 9.367,-0.136 12.75,0 3.382,0.141 0.414,0.254 -6.598,0.25 -7.012,0 -9.781,-0.113 -6.152,-0.25 z m 57.715,0 c 3.609,-0.136 9.515,-0.136 13.124,0 3.61,0.137 0.657,0.25 -6.562,0.25 -7.219,0 -10.172,-0.113 -6.562,-0.25 z m 115.91,0 c 3.422,-0.14 8.824,-0.136 12,0 3.179,0.141 0.379,0.254 -6.223,0.254 -6.602,0 -9.199,-0.113 -5.777,-0.254 z m 96,0 c 3.422,-0.14 8.824,-0.136 12,0 3.179,0.141 0.379,0.254 -6.223,0.254 -6.602,0 -9.199,-0.113 -5.777,-0.254 z"
         style="fill:#feb4a7;fill-opacity:1;fill-rule:nonzero;stroke:none"
         id="path7634" />
      <path
         d="m 297.656,111.938 c -0.933,-1.192 -0.91,-1.215 0.282,-0.282 1.25,0.977 1.648,1.594 1.031,1.594 -0.157,0 -0.75,-0.59 -1.313,-1.312 z M 30.059,97.812 c 0.035,-0.874 0.214,-1.05 0.453,-0.453 0.218,0.543 0.191,1.188 -0.059,1.438 -0.25,0.25 -0.426,-0.195 -0.394,-0.985 z M 326.25,77.25 311.625,76.824 326.02,76.664 c 8.964,-0.102 14.566,0.117 14.855,0.586 0.254,0.414 0.359,0.676 0.23,0.586 -0.125,-0.09 -6.812,-0.352 -14.855,-0.586 z M 48.973,76.691 c 3.632,-0.136 9.367,-0.136 12.75,0 3.382,0.141 0.414,0.254 -6.598,0.25 -7.012,0 -9.781,-0.113 -6.152,-0.25 z m 51.715,0 c 4.847,-0.132 12.777,-0.132 17.624,0 4.848,0.129 0.883,0.239 -8.812,0.239 -9.695,0 -13.66,-0.11 -8.812,-0.239 z m 122.25,0 c 4.023,-0.136 10.601,-0.136 14.624,0 4.024,0.133 0.731,0.247 -7.312,0.247 -8.043,0 -11.336,-0.114 -7.312,-0.247 z m 28.511,0.02 c 1.137,-0.172 2.824,-0.168 3.75,0.012 0.922,0.175 -0.011,0.32 -2.074,0.312 -2.063,-0.004 -2.816,-0.152 -1.676,-0.324 z"
         style="fill:#fea798;fill-opacity:1;fill-rule:nonzero;stroke:none"
         id="path7636" />
      <path
         d="m 48.227,117.941 c 4.043,-0.136 10.457,-0.136 14.25,0 3.793,0.137 0.484,0.247 -7.352,0.247 -7.836,0 -10.941,-0.114 -6.898,-0.247 z m 43.613,-0.39 c -0.203,-0.524 -0.27,-9.887 -0.152,-20.813 l 0.214,-19.863 0.172,20.395 0.176,20.398 7.125,0.562 -3.586,0.133 c -2.309,0.09 -3.715,-0.203 -3.949,-0.812 z m 38.098,0.402 c 1.546,-0.16 4.078,-0.16 5.624,0 1.547,0.164 0.282,0.293 -2.812,0.293 -3.094,0 -4.359,-0.129 -2.812,-0.293 z m 12.187,0.102 c 3.512,-0.567 8.453,-0.637 8.133,-0.117 -0.192,0.308 -2.438,0.515 -4.988,0.46 -2.555,-0.058 -3.969,-0.21 -3.145,-0.343 z m 51.199,-0.098 c 1.352,-0.168 3.375,-0.164 4.5,0.008 1.129,0.172 0.028,0.308 -2.449,0.305 -2.477,-0.008 -3.398,-0.145 -2.051,-0.313 z m 28.114,-0.016 c 3.609,-0.136 9.515,-0.136 13.124,0 3.61,0.137 0.657,0.25 -6.562,0.25 -7.219,0 -10.172,-0.113 -6.562,-0.25 z m 40.542,-0.003 c 5.286,-0.129 13.723,-0.126 18.75,0.003 5.032,0.129 0.708,0.235 -9.605,0.235 -10.313,0 -14.426,-0.106 -9.145,-0.238 z m 55.458,0.003 c 3.609,-0.136 9.515,-0.136 13.124,0 3.61,0.137 0.657,0.25 -6.562,0.25 -7.219,0 -10.172,-0.113 -6.562,-0.25 z m -196.782,-5.253 c -0.933,-1.192 -0.91,-1.215 0.282,-0.282 0.722,0.563 1.312,1.156 1.312,1.313 0,0.617 -0.617,0.219 -1.594,-1.031 z m 80.649,-1.126 -1.43,-1.687 1.687,1.43 c 1.586,1.34 2.028,1.945 1.43,1.945 -0.144,0 -0.902,-0.758 -1.687,-1.688 z M 195.867,97.5 c 0,-1.031 0.172,-1.453 0.379,-0.938 0.207,0.516 0.207,1.36 0,1.876 -0.207,0.515 -0.379,0.093 -0.379,-0.938 z m 95.942,0.312 c 0.035,-0.874 0.214,-1.05 0.453,-0.453 0.218,0.543 0.191,1.188 -0.059,1.438 -0.25,0.25 -0.426,-0.195 -0.394,-0.985 z M 28.5,82.969 c 0,-0.157 0.59,-0.75 1.312,-1.313 1.192,-0.933 1.215,-0.91 0.282,0.282 -0.977,1.25 -1.594,1.648 -1.594,1.031 z"
         style="fill:#fe8a75;fill-opacity:1;fill-rule:nonzero;stroke:none"
         id="path7638" />
      <path
         d="m 249.324,96 c 0,-10.52 0.106,-14.82 0.235,-9.562 0.129,5.257 0.129,13.867 0,19.124 -0.129,5.258 -0.235,0.958 -0.235,-9.562 z M 29.156,112.688 c -0.933,-1.192 -0.91,-1.215 0.282,-0.282 0.722,0.563 1.312,1.156 1.312,1.313 0,0.617 -0.617,0.219 -1.594,-1.031 z m 51.094,0.281 c 0,-0.157 0.59,-0.75 1.312,-1.313 1.192,-0.933 1.215,-0.91 0.282,0.282 -0.977,1.25 -1.594,1.648 -1.594,1.031 z M 75,107.719 c 0,-0.157 0.59,-0.75 1.312,-1.313 1.192,-0.933 1.215,-0.91 0.282,0.282 -0.977,1.25 -1.594,1.648 -1.594,1.031 z m 32.906,-6.281 c -0.933,-1.192 -0.91,-1.215 0.282,-0.282 0.722,0.563 1.312,1.156 1.312,1.313 0,0.617 -0.617,0.219 -1.594,-1.031 z M 79.676,97.5 c 0,-1.445 0.152,-2.035 0.34,-1.312 0.191,0.722 0.191,1.902 0,2.624 -0.188,0.723 -0.34,0.133 -0.34,-1.312 z m 230.262,-3.559 c 5.257,-0.129 13.867,-0.129 19.124,0 5.258,0.129 0.958,0.235 -9.562,0.235 -10.52,0 -14.82,-0.106 -9.562,-0.235 z M 348,85.5 c 0,-0.414 0.336,-0.75 0.75,-0.75 0.414,0 0.75,0.336 0.75,0.75 0,0.414 -0.336,0.75 -0.75,0.75 -0.414,0 -0.75,-0.336 -0.75,-0.75 z m 0.453,-8.125 c -0.215,-0.344 0.09,-0.625 0.672,-0.625 0.582,0 0.887,0.281 0.672,0.625 -0.211,0.344 -0.516,0.625 -0.672,0.625 -0.156,0 -0.461,-0.281 -0.672,-0.625 z"
         style="fill:#fe6d55;fill-opacity:1;fill-rule:nonzero;stroke:none"
         id="path7640" />
      <path
         d="m 99.32,100.875 c 0,-9.074 0.11,-12.684 0.239,-8.02 0.132,4.661 0.132,12.086 0,16.5 -0.133,4.411 -0.239,0.594 -0.239,-8.48 z m 19.086,9.563 c -0.933,-1.192 -0.91,-1.215 0.282,-0.282 0.722,0.563 1.312,1.156 1.312,1.313 0,0.617 -0.617,0.219 -1.594,-1.031 z m 51.656,0.003 c 2.993,-0.14 7.883,-0.14 10.876,0 2.992,0.145 0.542,0.262 -5.438,0.262 -5.98,0 -8.43,-0.117 -5.438,-0.262 z M 256.82,94.125 c 0,-9.488 0.11,-13.266 0.239,-8.395 0.132,4.872 0.132,12.633 0,17.25 -0.129,4.618 -0.239,0.633 -0.239,-8.855 z m -132.882,10.359 c 0.722,-0.191 1.902,-0.191 2.624,0 0.723,0.188 0.133,0.34 -1.312,0.34 -1.445,0 -2.035,-0.152 -1.312,-0.34 z m 41.968,-0.789 c 2.766,-0.144 7.489,-0.144 10.5,-0.004 3.008,0.145 0.742,0.262 -5.031,0.262 -5.773,0.004 -8.238,-0.113 -5.469,-0.258 z m 142.906,-3.004 c 4.641,-0.132 12.235,-0.132 16.876,0 4.64,0.129 0.843,0.239 -8.438,0.239 -9.281,0 -13.078,-0.11 -8.438,-0.239 z M 22.645,97.875 c 0.015,-1.238 0.183,-1.652 0.375,-0.922 0.191,0.727 0.179,1.742 -0.028,2.25 -0.207,0.508 -0.359,-0.09 -0.347,-1.328 z m 180.75,0 c 0.015,-1.238 0.183,-1.652 0.375,-0.922 0.191,0.727 0.179,1.742 -0.028,2.25 -0.207,0.508 -0.359,-0.09 -0.347,-1.328 z M 87.059,97.812 c 0.035,-0.874 0.214,-1.05 0.453,-0.453 0.218,0.543 0.191,1.188 -0.059,1.438 -0.25,0.25 -0.426,-0.195 -0.394,-0.985 z m 22.629,-0.121 c 3.195,-0.14 8.429,-0.14 11.624,0 3.196,0.141 0.583,0.258 -5.812,0.258 -6.395,0 -9.008,-0.117 -5.812,-0.258 z m 30,-6.566 c 0.011,-1.648 0.164,-2.238 0.343,-1.305 0.18,0.934 0.172,2.285 -0.015,3 -0.188,0.719 -0.336,-0.047 -0.328,-1.695 z M 76.406,88.688 c -0.933,-1.192 -0.91,-1.215 0.282,-0.282 0.722,0.563 1.312,1.156 1.312,1.313 0,0.617 -0.617,0.219 -1.594,-1.031 z m 129.844,0.281 c 0,-0.157 0.59,-0.75 1.312,-1.313 1.192,-0.933 1.215,-0.91 0.282,0.282 -0.977,1.25 -1.594,1.648 -1.594,1.031 z M 351,84.84 c 0,-0.414 0.336,-0.961 0.75,-1.215 0.414,-0.254 0.75,-0.125 0.75,0.285 0,0.414 -0.336,0.961 -0.75,1.215 C 351.336,85.379 351,85.25 351,84.84 Z M 135.656,81.188 c -0.933,-1.192 -0.91,-1.215 0.282,-0.282 1.25,0.977 1.648,1.594 1.031,1.594 -0.157,0 -0.75,-0.59 -1.313,-1.312 z m 208.653,0.124 c 0.035,-0.874 0.214,-1.05 0.453,-0.453 0.218,0.543 0.191,1.188 -0.059,1.438 -0.25,0.25 -0.426,-0.195 -0.394,-0.985 z m 5.214,0.813 c 0,-0.414 0.329,-1.258 0.727,-1.875 0.398,-0.617 0.727,-0.789 0.727,-0.375 0,0.414 -0.329,1.258 -0.727,1.875 -0.398,0.617 -0.727,0.789 -0.727,0.375 z m 3.036,-0.813 c 0.035,-0.874 0.214,-1.05 0.453,-0.453 0.218,0.543 0.191,1.188 -0.059,1.438 -0.25,0.25 -0.426,-0.195 -0.394,-0.985 z M 351.5,79 c -0.273,-0.273 -0.5,-0.848 -0.5,-1.273 0,-0.473 0.348,-0.426 0.887,0.109 0.488,0.488 0.715,1.062 0.5,1.277 -0.211,0.211 -0.614,0.16 -0.887,-0.113 z m -3.039,-1.887 c 0.215,-0.351 0.707,-0.445 1.09,-0.207 0.98,0.606 0.871,0.844 -0.395,0.844 -0.597,0 -0.914,-0.285 -0.695,-0.637 z M 170.109,76.738 c 0.543,-0.218 1.188,-0.191 1.438,0.059 0.25,0.25 -0.195,0.426 -0.985,0.394 -0.874,-0.035 -1.05,-0.214 -0.453,-0.453 z"
         style="fill:#fe4d2e;fill-opacity:1;fill-rule:nonzero;stroke:none"
         id="path7642" />
      <path
         d="m 36.555,116.68 c -5.004,-1.789 -9.184,-5.618 -11.516,-10.555 -3.789,-8.012 -1.648,-18.168 5.027,-23.883 5.266,-4.508 8.743,-5.14 26.75,-4.859 14.86,0.23 15.723,0.328 19.219,2.109 15.637,7.988 14.133,31.465 -2.383,37.094 -4.57,1.555 -32.797,1.629 -37.097,0.094 z m 36.547,-7.391 C 82.66,103.875 82.465,90.836 72.75,85.703 69.473,83.973 68.941,83.93 54.316,84.148 l -15.054,0.227 -3.192,2.113 c -6.957,4.61 -7.945,14.313 -2.097,20.66 3.16,3.43 5.164,3.793 21.152,3.809 14.187,0.016 15.16,-0.074 17.977,-1.668 z M 92.25,97.5 V 77.25 h 17.887 c 19.125,0 21.515,0.348 25.117,3.664 3.18,2.926 4.246,5.531 4.246,10.375 0,3.434 -0.406,4.957 -1.902,7.16 -2.399,3.531 -6.778,5.801 -11.192,5.801 -1.875,0 -3.406,0.297 -3.406,0.66 0,0.363 3.207,3.301 7.125,6.524 3.918,3.222 7.125,5.964 7.125,6.089 0,0.125 -2.277,0.219 -5.062,0.211 -4.626,-0.011 -5.301,-0.222 -7.821,-2.437 -1.519,-1.332 -6.441,-5.629 -10.941,-9.547 l -8.176,-7.125 11.312,-0.406 c 6.223,-0.227 11.915,-0.688 12.653,-1.031 1.723,-0.797 3.535,-4.301 3.535,-6.833 0,-1.179 -0.887,-2.855 -2.207,-4.179 l -2.211,-2.207 -14.477,0.203 -14.48,0.203 V 117.75 H 92.25 Z m 54.594,11.285 c 3.179,-4.93 8.144,-12.723 11.031,-17.312 9.133,-14.528 8.965,-14.34 12.598,-14.078 3.527,0.257 3.047,-0.34 15.332,18.98 3.148,4.949 7.519,11.785 9.715,15.187 l 3.988,6.188 -4.317,-0.016 -4.316,-0.011 -2.25,-3.551 -2.25,-3.547 -10.676,-0.207 -10.672,-0.207 -3.797,-5.586 10.208,-0.211 c 9.296,-0.187 10.164,-0.32 9.714,-1.5 -0.718,-1.887 -10.437,-17.418 -10.89,-17.402 -0.215,0.008 -1.672,2.117 -3.242,4.687 -3.387,5.543 -10.211,16.434 -14.36,22.918 l -2.965,4.633 h -8.633 z m 62.754,7.77 c -13.426,-4.766 -17.442,-22.621 -7.41,-32.95 5.343,-5.507 8.953,-6.355 27,-6.355 H 244.57 L 239.93,84 h -12.856 c -11.558,0 -13.179,0.16 -16.133,1.59 -9.621,4.656 -9.753,19.031 -0.218,23.894 2.699,1.379 4.394,1.516 18.718,1.516 h 15.75 l -2.031,3.352 -2.035,3.351 -14.25,-0.035 c -10.387,-0.027 -15.07,-0.328 -17.277,-1.113 z m 41.05,0.297 c -0.652,-0.657 -0.898,-6.204 -0.898,-20.25 V 77.25 h 6.75 v 33.723 l 18.398,0.203 18.403,0.199 -2.071,3.187 -2.066,3.188 h -18.809 c -13.625,0 -19.054,-0.246 -19.707,-0.898 z m 54.977,-0.383 c -4.551,-1.824 -8.801,-5.61 -10.879,-9.684 -2.547,-4.996 -2.629,-13.41 -0.172,-18.055 2.406,-4.546 6.528,-8.222 11.176,-9.96 3.586,-1.344 5.832,-1.52 19.375,-1.52 h 15.316 l -2.031,3.352 -2.035,3.351 -12.891,0.024 C 309.77,84 307.633,84.406 304.246,87.609 302.344,89.41 300,92.984 300,94.086 c 0,0.23 8.609,0.414 19.137,0.414 h 19.133 l -3.969,6 h -16.653 c -9.156,0 -16.867,0.219 -17.132,0.484 -1,1 2.945,6.473 5.918,8.215 2.98,1.746 3.543,1.801 18.925,1.801 h 15.856 l -4.078,6.75 -14.258,-0.039 c -11.27,-0.031 -14.883,-0.289 -17.254,-1.242 z m 40.109,-32.114 c -1.379,-1.66 -0.593,-1.851 0.954,-0.23 0.722,0.758 1.015,1.375 0.656,1.375 -0.364,0 -1.086,-0.516 -1.61,-1.145 z M 347.5,81.18 c 0.102,-1.328 0.613,-2.082 1.469,-2.16 0.937,-0.082 0.984,-0.016 0.172,0.238 -1.258,0.387 -1.528,1.476 -0.465,1.867 0.371,0.137 0.222,0.664 -0.328,1.176 -0.825,0.754 -0.977,0.551 -0.848,-1.121 z M 345,79.594 c 0,-0.758 2.168,-2.707 2.52,-2.262 0.125,0.16 -0.387,0.883 -1.145,1.606 C 345.617,79.66 345,79.953 345,79.594 Z"
         style="fill:#fe2904;fill-opacity:1;fill-rule:nonzero;stroke:none"
         id="path7644" />
    </g>
  </g>
</svg>
